<?xml version="1.0" standalone="no"?>
<!DOCTYPE svg PUBLIC "-//W3C//DTD SVG 20010904//EN"
 "http://www.w3.org/TR/2001/REC-SVG-20010904/DTD/svg10.dtd">
<svg version="1.0" xmlns="http://www.w3.org/2000/svg"
 width="2240.000000pt" height="1400.000000pt" viewBox="0 0 2240.000000 1400.000000"
 preserveAspectRatio="xMidYMid meet">
<metadata>
Created by potrace 1.10, written by Peter Selinger 2001-2011
</metadata>
<g transform="translate(0.000000,1400.000000) scale(0.050000,-0.050000)"
fill="#000000" stroke="none">
<path d="M0 27920 c0 -73 4 -80 55 -82 l55 -2 -50 -14 c-70 -19 -71 -95 -2
-132 l52 -28 -55 -1 -55 -1 0 -210 0 -210 62 0 c60 0 62 -3 50 -62 -6 -35 -12
-98 -12 -140 0 -56 -8 -78 -30 -78 -16 0 -30 10 -30 21 0 12 8 17 17 11 10 -6
13 14 9 44 -42 273 -65 146 -66 -359 0 -476 10 -524 93 -455 22 19 27 -6 27
-153 0 -97 4 -172 8 -167 8 8 40 652 35 688 -15 95 -9 470 7 470 11 0 11 7 -2
15 -33 22 -37 272 -4 254 21 -12 21 -10 1 12 -49 53 -32 165 20 136 25 -14 57
-23 72 -20 15 3 21 -4 14 -16 -15 -23 14 -29 36 -8 23 24 120 26 147 4 20 -17
26 -14 26 12 0 18 8 29 17 23 9 -6 34 2 54 17 26 18 52 21 83 9 26 -9 46 -9
46 0 0 10 16 16 35 15 25 -2 34 11 33 43 -2 32 6 43 25 36 15 -6 27 -3 27 7 0
10 27 18 60 17 33 -1 60 -10 60 -20 0 -10 10 -12 21 -5 72 44 516 55 510 12
-7 -51 -271 -94 -271 -44 0 11 -13 15 -28 9 -17 -6 -31 3 -35 22 -6 29 -16 26
-66 -17 -32 -28 -68 -49 -80 -47 -11 2 -18 -12 -15 -32 3 -19 -18 -61 -48 -93
-40 -42 -56 -81 -59 -144 -2 -48 -5 -98 -7 -112 -1 -14 -34 -57 -74 -95 -62
-61 -63 -82 -3 -72 19 3 20 -27 2 -44 -7 -8 -26 -3 -41 9 -15 12 -33 17 -40
10 -7 -7 -2 -13 12 -13 13 0 18 -10 11 -21 -14 -24 51 -81 76 -66 8 5 15 -9
15 -31 0 -22 10 -46 21 -53 12 -7 20 -46 18 -86 -1 -40 -1 -82 1 -93 3 -11 4
-26 3 -32 -1 -7 -3 -97 -5 -200 -3 -201 -27 -287 -74 -269 -19 8 -25 2 -17
-19 7 -18 0 -30 -18 -30 -16 0 -29 -8 -29 -19 0 -10 19 -15 41 -11 26 5 39 -1
33 -16 -4 -13 -23 -23 -41 -21 -44 4 -42 -24 7 -73 24 -24 40 -30 41 -15 1 48
35 -34 45 -109 7 -54 -1 -84 -29 -115 -26 -27 -30 -41 -13 -42 14 0 8 -11 -14
-23 -91 -53 -124 -134 -55 -138 21 -1 25 -5 10 -11 -14 -6 -25 -19 -25 -30 0
-11 9 -14 20 -7 11 7 20 -2 20 -19 0 -17 -16 -32 -35 -33 -19 0 -24 -6 -11
-11 13 -5 19 -23 13 -38 -8 -20 3 -29 35 -29 35 0 41 -5 22 -24 -18 -18 -32
-15 -60 11 -32 28 -37 29 -37 3 0 -16 7 -30 15 -30 30 0 125 -101 127 -136 2
-19 9 -45 17 -57 7 -13 15 -77 16 -144 2 -67 15 -145 30 -173 14 -28 18 -46 7
-39 -34 21 -20 -9 25 -50 l44 -41 -414 0 -414 0 0 -60 0 -60 403 0 404 0 -45
-48 c-42 -44 -129 -84 -167 -75 -8 2 -15 -6 -15 -17 0 -11 19 -20 41 -20 24 0
36 -9 28 -21 -7 -12 -25 -17 -39 -12 -17 7 -25 -6 -23 -37 2 -25 10 -42 18
-37 20 13 75 -43 75 -77 1 -19 6 -18 20 4 14 22 20 6 22 -60 4 -131 -3 -189
-24 -197 -10 -3 -18 -18 -18 -32 0 -33 -69 -95 -87 -78 -7 8 -13 -1 -13 -20 0
-20 16 -33 41 -33 24 0 36 -9 28 -21 -7 -12 -25 -17 -40 -11 -51 19 6 -84 101
-183 93 -97 108 -142 65 -189 -33 -35 -41 -66 -49 -186 -13 -173 -20 -190 -86
-190 -35 0 -60 11 -60 25 0 16 -6 17 -15 5 -22 -29 -408 -32 -444 -3 -22 18
-25 17 -14 -2 11 -17 1 -25 -31 -25 l-46 0 5 275 c8 394 7 519 -6 660 -7 87
-2 141 19 180 19 38 22 67 10 89 -12 22 -11 38 3 46 13 9 14 22 2 37 -10 13
-25 70 -33 128 -19 146 -50 111 -50 -56 0 -100 -7 -139 -26 -139 -19 0 -24 40
-20 162 4 141 1 159 -25 138 -39 -33 -42 -1551 -3 -1567 18 -7 18 -10 -1 -11
-17 -1 -25 -38 -25 -112 l0 -110 4500 0 4500 0 0 2670 0 2670 -244 -2 c-284
-3 -364 -21 -304 -70 21 -17 27 -25 13 -18 -14 7 -25 4 -25 -6 0 -10 -25 -15
-55 -11 -131 16 -189 12 -206 -15 -15 -23 17 -30 187 -39 l204 -11 -240 -6
c-132 -4 -252 -5 -267 -3 -15 2 -22 -4 -16 -14 6 -9 -32 -14 -83 -10 -52 4
-172 12 -268 18 l-173 10 -8 -77 -8 -76 -4 73 c-3 69 -7 74 -68 73 -141 -1
-167 3 -135 24 24 16 21 19 -16 20 -26 0 -42 7 -37 16 6 9 -7 17 -29 19 -21 1
-34 -6 -27 -16 6 -11 -5 -20 -25 -21 -20 -2 -9 -10 24 -18 61 -15 -76 -31
-177 -21 -22 3 -32 -5 -24 -17 8 -14 -14 -19 -62 -17 -70 5 -76 0 -86 -55
l-11 -60 -150 -2 -150 -2 140 12 c133 11 140 15 140 62 l0 50 -660 0 -660 0 0
-50 c0 -49 3 -50 160 -53 107 -1 134 2 80 10 -91 15 -118 76 -30 69 56 -5 694
-7 740 -3 118 12 240 -5 240 -33 0 -26 -190 -47 -285 -32 -8 1 -15 -9 -16 -23
0 -15 -7 -13 -19 7 -10 17 -39 29 -64 26 -25 -2 -82 -7 -126 -9 l-80 -5 80
-14 c44 -8 -95 -14 -310 -12 l-390 2 0 73 c0 68 -4 73 -60 73 -114 -1 -260 9
-230 15 17 3 64 12 105 19 41 6 75 20 75 31 0 10 -7 18 -15 17 -39 -7 -48 5
-25 32 52 63 -65 71 -1039 70 l-955 -1 -23 -51 c-24 -51 -63 -57 -78 -12 -5
15 5 20 28 13 21 -7 15 2 -13 19 -44 27 -248 31 -1645 31 l-1595 1 0 -80z
m180 -10 c0 -42 -9 -50 -60 -50 -51 0 -60 8 -60 50 0 42 9 50 60 50 51 0 60
-8 60 -50z m8440 10 c0 -27 -13 -40 -40 -40 -39 0 -54 39 -27 67 28 27 67 12
67 -27z m-8261 1 c36 -23 28 -31 -42 -48 -51 -12 -58 -1 -39 62 4 12 54 3 81
-14z m216 -16 c5 -14 -9 -25 -32 -25 -22 0 -54 -5 -71 -12 -23 -9 -32 -1 -32
28 0 47 120 54 135 9z m222 4 c15 -15 -2 -23 -78 -36 -60 -11 -71 -8 -73 25
-3 36 118 45 151 11z m357 4 c25 -25 -10 -34 -151 -42 -125 -6 -143 -3 -143
27 0 35 261 48 294 15z m242 -2 c17 -17 0 -24 -91 -38 -76 -12 -85 -9 -85 26
0 38 140 48 176 12z m341 -1 c18 -19 -7 -25 -142 -35 -121 -9 -135 -7 -135 26
0 34 243 42 277 9z m243 -4 c0 -14 -20 -26 -45 -26 -25 0 -65 -6 -89 -12 -35
-10 -41 -5 -33 27 12 46 167 56 167 11z m175 14 c36 0 31 -34 -8 -48 -47 -18
-107 5 -107 42 0 22 13 27 45 19 25 -7 56 -13 70 -13z m260 -16 c5 -15 -14
-24 -52 -24 -33 0 -72 -5 -87 -10 -17 -7 -27 3 -27 27 0 45 152 51 166 7z
m165 8 c0 -26 -40 -52 -80 -52 -13 0 -14 35 -2 75 7 20 82 -1 82 -23z m319 10
c92 -4 13 -37 -114 -48 -110 -9 -125 -6 -125 25 0 28 16 34 95 30 52 -3 117
-6 144 -7z m254 -8 c22 -22 -3 -36 -81 -45 -60 -8 -72 -3 -72 28 0 37 119 50
153 17z m1167 -9 c0 -18 -63 -25 -235 -27 -129 -1 -257 -2 -285 -3 -46 -1
-161 1 -376 5 -122 2 -154 -27 -44 -42 66 -9 44 -12 -80 -12 -93 0 -138 4
-100 9 39 4 89 27 111 51 50 53 1009 71 1009 19z m817 7 c13 -8 23 -6 23 3 0
10 27 14 60 9 33 -5 60 -17 60 -26 0 -22 48 -21 -735 -19 -120 1 -165 8 -165
26 0 28 713 34 757 7z m-3782 -87 c-41 -4 -109 -4 -150 0 -41 5 -7 8 75 8 83
0 116 -3 75 -8z m820 0 c-42 -4 -105 -4 -140 1 -36 4 -2 8 75 7 77 0 106 -3
65 -8z m420 1 c-30 -5 -84 -5 -120 0 -36 4 -11 8 55 8 66 0 95 -4 65 -8z
m1120 0 c-30 -5 -84 -5 -120 0 -36 4 -11 8 55 8 66 0 95 -4 65 -8z m1235 -6
c-66 -7 -106 -15 -90 -17 62 -7 93 -41 60 -63 -26 -17 -26 -19 3 -20 17 0 43
-14 57 -30 27 -33 -188 -42 -240 -10 -34 21 -5 100 35 100 77 0 -12 38 -105
45 -55 4 13 8 150 8 188 0 220 -3 130 -13z m330 -80 c0 -33 -9 -60 -20 -60
-11 0 -20 27 -20 60 0 33 9 60 20 60 11 0 20 -27 20 -60z m3519 22 c30 -57
-28 -102 -73 -56 -27 26 -28 37 -7 63 34 41 55 39 80 -7z m-8274 -8 c162 -2
295 3 295 11 0 7 22 6 48 -4 26 -10 53 -13 59 -7 31 31 193 15 193 -19 0 -31
-27 -35 -255 -36 -140 -1 -273 -3 -295 -3 -40 -1 -248 2 -399 5 -96 1 -120 14
-91 49 14 17 47 23 86 17 35 -5 197 -11 359 -13z m835 -30 c0 -51 -7 -56 -75
-58 -70 -2 -71 -1 -15 11 42 9 62 27 66 58 9 63 24 56 24 -11z m200 4 c0 -19
-25 -28 -80 -28 -94 0 -115 53 -25 64 72 9 105 -2 105 -36z m195 26 c14 5 25
-5 25 -22 0 -18 -17 -32 -38 -32 -21 0 -52 -5 -68 -11 -22 -9 -27 1 -19 39 7
40 17 47 42 34 18 -9 44 -13 58 -8z m780 -19 c-6 25 -2 45 8 45 11 0 17 -18
13 -41 -3 -22 -13 -40 -21 -40 -8 1 -105 1 -215 1 -162 0 -200 6 -200 29 0 52
339 52 388 1 38 -40 38 -40 27 5z m484 -2 c22 -18 25 -17 14 2 -12 19 14 25
106 25 95 0 121 -7 121 -30 0 -23 -23 -30 -95 -30 -52 1 -167 1 -255 0 -291
-4 -310 -2 -310 28 0 49 359 54 419 5z m841 7 c0 -26 -13 -40 -39 -40 -44 0
-69 30 -51 60 23 37 90 22 90 -20z m251 21 c-4 -6 98 -6 226 -1 261 12 303 7
303 -32 0 -29 -137 -35 -580 -28 -182 3 -190 5 -175 44 6 17 50 26 121 27 62
1 109 -3 105 -10z m1029 -21 c0 -29 -13 -40 -50 -40 -45 0 -48 4 -25 40 13 22
36 40 50 40 14 0 25 -18 25 -40z m235 8 c32 -32 7 -69 -45 -66 -11 1 -9 6 5
11 35 15 31 47 -6 47 -17 0 -26 9 -19 20 17 27 28 25 65 -12z m245 -8 c0 -29
-13 -40 -50 -40 -47 0 -67 36 -37 67 30 30 87 12 87 -27z m1350 21 c37 -15 37
-18 5 -31 -19 -8 -30 -22 -24 -32 6 -10 -3 -12 -20 -6 -17 7 -31 29 -31 50 0
41 9 44 70 19z m166 -28 c5 -22 -7 -33 -35 -33 -22 0 -41 12 -41 27 0 61 65
67 76 6z m144 39 c0 -5 6 -24 13 -42 10 -26 3 -32 -35 -27 -61 9 -78 77 -19
77 22 0 41 -4 41 -8z m160 -32 c0 -22 -13 -40 -30 -40 -17 0 -30 18 -30 40 0
22 13 40 30 40 17 0 30 -18 30 -40z m210 25 c40 -30 30 -65 -19 -65 -52 0 -81
28 -61 60 14 23 52 26 80 5z m641 -6 c18 -30 -28 -79 -62 -66 -44 17 -36 87
10 87 21 0 44 -9 52 -21z m146 -6 c26 -31 11 -53 -35 -53 -28 1 -28 3 -2 20
26 17 25 19 -5 20 -19 0 -35 9 -35 20 0 29 51 25 77 -7z m203 -14 c0 -52 -66
-46 -76 6 -5 24 6 35 35 35 28 0 41 -13 41 -41z m-7327 -9 c0 -18 -18 -30 -46
-30 -28 0 -47 12 -47 30 0 18 19 30 47 30 28 0 46 -12 46 -30z m707 0 c0 -21
-21 -30 -70 -30 -49 0 -70 9 -70 30 0 21 21 30 70 30 49 0 70 -9 70 -30z
m1680 0 c0 -23 -26 -31 -105 -32 -202 -4 -266 7 -244 43 21 34 349 24 349 -11z
m1268 -102 c18 -7 32 -21 32 -31 0 -11 -11 -13 -25 -5 -14 8 -7 -6 15 -30 l40
-46 11 47 c12 53 68 73 85 31 23 -62 -21 -81 -199 -87 -125 -4 -162 0 -127 13
49 18 49 18 -10 17 -329 -6 -550 5 -550 29 0 18 31 27 99 27 63 1 95 -6 87
-19 -7 -12 -2 -14 12 -5 31 19 390 21 420 2 12 -7 22 -4 22 8 0 12 -20 30 -45
40 -39 16 -36 19 28 20 41 0 88 -4 105 -11z m3572 -48 c0 -65 1 -66 47 -48 17
6 26 23 21 36 -5 14 4 25 21 25 17 0 31 -5 31 -12 0 -7 19 -14 43 -16 24 -2
51 -15 60 -29 11 -17 16 -8 17 29 0 30 9 55 20 55 11 0 20 -26 20 -57 l0 -58
-255 -14 c-140 -7 -745 -8 -1345 -2 -599 7 -1301 14 -1560 15 -285 2 -419 8
-340 16 l130 13 -154 4 c-115 2 -152 10 -145 28 11 28 845 32 890 5 13 -8 31
-3 40 12 14 23 27 22 76 -7 57 -34 59 -33 69 7 15 57 85 42 82 -18 -1 -43 4
-44 200 -40 l202 4 -185 7 c-135 5 -185 14 -185 32 0 38 838 28 862 -10 12
-20 19 -18 29 9 7 19 26 34 42 34 16 0 25 -7 20 -16 -6 -9 -2 -29 8 -45 13
-21 18 -11 19 36 l0 65 610 0 610 0 0 -60z m-8240 -10 c0 -40 -10 -50 -50 -50
-40 0 -50 10 -50 50 0 40 10 50 50 50 40 0 50 -10 50 -50z m1376 5 c8 -42 -50
-69 -80 -39 -30 30 -3 88 39 80 19 -3 38 -22 41 -41z m134 -5 c0 -31 -11 -50
-30 -50 -19 0 -30 19 -30 50 0 31 11 50 30 50 19 0 30 -19 30 -50z m156 23
c17 -43 -21 -90 -44 -55 -20 30 -8 82 18 82 9 0 20 -12 26 -27z m207 -4 c17
-44 -25 -85 -56 -54 -25 25 -9 85 23 85 12 0 27 -14 33 -31z m761 9 c26 -26
10 -100 -21 -96 -13 2 -48 2 -78 0 l-55 -2 0 -162 c0 -136 5 -160 30 -151 17
7 30 5 30 -3 0 -8 57 -11 127 -7 102 5 126 0 126 -24 0 -16 -14 -30 -31 -31
-18 0 -83 -1 -146 -2 -138 -2 -200 -62 -71 -69 25 -1 45 -11 45 -21 0 -11 -11
-19 -25 -17 -14 1 -25 -7 -25 -18 0 -11 -13 -9 -30 5 -17 14 -37 20 -44 13 -7
-7 -4 -13 6 -13 11 0 16 -37 11 -82 -4 -46 4 -105 20 -133 21 -40 21 -53 3
-60 -37 -12 -37 -1658 -1 -1671 20 -7 20 -17 0 -51 -31 -53 -36 -834 -5 -853
26 -16 26 -90 0 -90 -13 0 -20 -153 -20 -420 0 -267 7 -420 20 -420 11 0 20
-18 20 -40 0 -22 -9 -40 -20 -40 -11 0 -21 -52 -22 -115 -1 -68 -7 -98 -15
-73 -9 29 -28 41 -63 38 -58 -5 -120 29 -120 65 0 41 -34 28 -46 -17 -6 -23
-23 -38 -38 -33 -37 12 -45 75 -10 75 17 0 35 14 41 30 7 18 0 30 -16 30 -42
0 -53 30 -34 83 14 36 8 55 -23 82 l-40 35 40 0 c23 0 52 14 66 30 14 17 19
30 12 30 -53 0 -116 38 -101 61 15 24 109 25 109 1 0 -15 57 -16 75 -1 3 2 15
5 28 7 74 8 118 192 46 192 -15 0 -36 16 -47 35 -12 19 -21 24 -21 10 -1 -35
-161 -34 -161 1 0 14 11 38 25 53 20 22 19 25 -10 15 -26 -9 -35 -2 -35 27 0
21 11 39 25 39 15 0 17 6 5 15 -38 28 -30 65 15 66 41 2 42 3 7 17 -57 22 -59
78 -2 67 25 -5 51 0 58 11 7 12 -6 16 -33 10 -32 -7 -37 -4 -18 9 21 16 20 22
-5 32 -35 13 -44 73 -12 73 11 0 20 14 20 30 0 17 -8 30 -18 30 -9 0 -21 21
-26 47 -8 38 -2 46 27 38 44 -12 50 31 7 48 -39 15 -39 59 0 74 17 7 30 23 30
37 -1 20 -5 19 -18 -2 -10 -16 -28 -21 -43 -11 -16 9 -20 7 -12 -7 8 -11 5
-26 -5 -33 -10 -6 -26 5 -35 24 -10 20 -21 -279 -27 -715 l-10 -750 -210 4
c-343 7 -380 10 -380 29 0 9 -7 15 -15 12 -17 -6 -25 12 -25 56 0 20 9 26 25
16 16 -9 15 -2 -3 20 -16 20 -20 34 -10 32 43 -8 68 3 68 31 0 17 9 31 20 33
93 11 316 157 241 157 -10 0 -15 18 -11 40 4 22 -1 40 -12 40 -11 0 -17 7 -13
15 4 8 -18 39 -49 69 -31 29 -56 48 -56 41 0 -7 -9 -4 -21 8 -12 12 -56 15
-110 7 -73 -11 -89 -8 -91 18 -1 21 -5 23 -11 7 -17 -42 -148 -32 -134 10 8
27 6 29 -9 7 -11 -15 -30 -21 -42 -13 -12 7 -22 5 -22 -6 0 -11 -18 -15 -40
-9 -22 6 -40 23 -40 37 0 37 34 54 49 24 6 -14 8 -6 4 17 -7 40 0 42 118 38
70 -2 126 2 126 8 -4 37 6 62 24 62 12 0 16 -8 10 -19 -6 -10 -1 -25 12 -33
14 -8 18 -6 10 7 -7 11 5 42 26 68 22 26 40 41 40 33 1 -8 23 8 50 35 58 58
33 167 -34 153 -19 -4 -49 7 -65 23 -29 29 -66 30 -152 2 -21 -6 -38 -3 -38 7
0 11 -19 24 -42 30 -24 7 -38 23 -33 38 6 14 -2 55 -17 91 -36 89 57 146 159
99 28 -14 34 -12 22 7 -10 16 -7 20 8 11 48 -30 127 -35 111 -8 -12 19 -7 19
18 -1 30 -24 34 -23 34 10 1 26 5 30 17 12 12 -20 24 -17 51 13 36 39 32 40
-401 43 -531 3 -487 1 -487 30 0 19 73 25 285 26 157 0 294 2 305 4 11 1 61 2
110 0 67 -2 82 3 60 18 -21 14 61 20 275 21 l305 0 0 60 0 60 -415 0 c-580 0
-925 19 -925 52 0 18 43 25 151 26 83 0 158 5 168 11 10 6 32 -3 49 -20 31
-30 43 -17 34 36 -2 14 29 23 63 17 8 -1 15 13 15 30 0 27 5 28 30 8 19 -16
30 -17 30 -4 0 12 18 18 40 14 22 -4 40 0 40 11 0 10 14 13 30 6 17 -6 30 -1
30 12 0 13 9 18 20 11 11 -7 20 2 20 19 0 17 8 31 19 31 10 0 15 18 11 40 -4
22 0 40 9 40 9 0 16 11 16 25 -4 97 9 145 25 95 15 -47 16 -47 18 15 2 63 -45
95 -62 44 -4 -14 -89 -21 -236 -20 -127 2 -296 3 -376 4 -136 1 -195 33 -93
50 52 9 654 12 679 4 11 -4 22 0 25 8 11 32 4 48 -20 51 -72 7 -215 53 -215
70 0 10 14 13 31 6 19 -7 26 -3 18 10 -8 12 -33 17 -56 11 -42 -11 -42 -11 -3
18 33 25 35 36 15 69 -37 58 -31 76 35 110 36 19 60 47 60 71 0 21 10 39 22
39 14 0 9 21 -12 53 -39 60 -18 86 70 86 102 1 124 9 145 54 12 26 29 47 37
47 9 0 -3 21 -28 46 -24 26 -50 44 -57 40 -7 -3 -34 13 -60 36 -36 31 -38 39
-11 30 25 -8 31 -4 21 12 -8 14 -17 46 -20 73 -5 51 -43 88 -71 71 -9 -6 -16
7 -16 29 0 21 -13 44 -30 50 -16 7 -30 35 -30 63 0 28 -14 73 -32 100 -17 26
-26 57 -19 68 6 10 3 24 -7 31 -49 30 -6 81 70 84 113 5 112 5 96 30 -8 14 -5
18 8 10 11 -8 35 6 52 31 24 34 26 48 7 60 -14 8 -17 16 -7 16 9 0 -6 19 -35
41 -29 23 -50 49 -48 58 3 9 -1 16 -8 14 -8 -2 -36 18 -64 44 -27 26 -60 41
-71 34 -40 -25 16 91 63 130 25 21 37 38 28 38 -10 1 -6 15 8 32 14 17 26 54
27 82 1 29 16 60 32 68 49 26 109 46 126 42 10 -2 11 5 4 17 -11 18 16 29 56
22 10 -2 12 6 5 16 -35 57 144 126 188 73 22 -26 31 -26 72 1 26 18 58 25 71
17 15 -9 19 -7 11 6 -14 23 78 53 108 34 12 -7 19 -561 19 -1455 0 -1416 1
-1445 39 -1469 25 -16 36 -38 29 -60 -10 -29 -8 -30 9 -5 12 17 31 31 42 33
12 1 30 3 41 5 11 1 20 10 20 21 0 10 -26 15 -58 11 -49 -6 -56 -2 -47 31 11
43 76 53 92 14 6 -16 10 -12 11 8 3 58 -21 97 -60 97 -22 0 -38 14 -38 32 0
24 13 30 47 24 38 -8 46 -2 38 27 -5 20 -27 37 -47 37 -25 0 -38 14 -38 40 0
30 11 38 45 32 25 -4 43 -17 40 -30 -7 -32 6 -27 37 13 15 19 19 29 10 21 -26
-22 -71 30 -49 57 28 34 -1 124 -45 138 -21 6 -38 25 -38 40 0 36 72 39 88 4
7 -17 10 -15 9 5 -4 69 4 102 23 90 11 -7 20 1 20 18 0 21 11 27 35 18 19 -7
28 -5 20 4 -8 9 5 26 30 39 68 34 70 166 3 183 -26 7 -48 23 -48 35 0 14 -8
11 -18 -5 -10 -15 -32 -22 -50 -16 -18 7 -32 4 -32 -7 0 -10 -18 -19 -40 -19
-27 0 -40 13 -40 40 0 30 13 40 51 40 30 0 46 9 39 20 -7 12 -21 16 -31 9 -10
-6 -15 29 -11 80 5 67 -1 91 -21 91 -15 0 -27 14 -27 30 0 17 17 30 38 30 36
0 78 91 53 116 -6 6 -11 -4 -11 -23 0 -20 -16 -33 -40 -33 -27 0 -40 13 -40
40 0 36 21 49 65 42 8 -1 15 11 15 28 0 17 -18 30 -42 30 -35 0 -40 8 -29 45
8 25 14 61 14 80 0 20 7 31 15 26 20 -12 64 80 47 97 -6 7 -28 12 -48 12 -52
0 -48 71 3 75 27 1 40 -10 40 -34 0 -46 53 -69 68 -30 6 16 2 29 -9 29 -10 0
-19 10 -19 22 0 12 14 17 31 10 18 -6 26 -3 19 8 -7 11 -25 20 -41 20 -16 0
-29 10 -29 22 0 12 -13 17 -28 12 -15 -6 -45 1 -65 16 -39 28 -37 30 53 55 22
6 18 15 -17 34 -40 21 -45 20 -34 -2 8 -15 -5 -6 -27 20 -54 61 -53 87 3 79
30 -4 46 6 51 31 5 21 -1 32 -12 26 -11 -7 -24 10 -29 38 -5 28 -5 46 1 40 13
-13 64 28 64 51 0 10 -13 18 -30 18 -49 0 -34 59 20 80 29 11 49 34 48 55 -1
20 -5 25 -11 10 -18 -44 -82 -28 -91 22 -8 39 -2 46 37 42 26 -3 47 -1 47 4 0
18 -57 67 -79 67 -31 0 -26 82 7 108 19 15 23 35 11 62 -14 36 -16 36 -18 4 0
-20 -10 -31 -22 -23 -28 17 15 69 58 70 25 1 24 6 -7 19 -36 15 -36 17 -4 19
20 0 31 10 24 21 -7 11 -4 20 7 20 10 0 24 -13 30 -30 9 -22 23 -25 60 -11 27
10 55 13 62 5 7 -7 22 0 32 17 12 20 18 21 19 4 0 -14 9 -25 20 -25 85 0 12
100 -75 103 -55 1 -74 6 -45 12 61 11 103 43 89 67 -6 10 3 18 20 18 17 0 31
-7 31 -15 0 -8 24 -26 52 -39 42 -19 50 -19 41 3 -19 49 43 87 81 49z m1282
-23 c9 -46 -70 -75 -206 -75 l-108 0 50 50 c46 46 103 70 81 35 -12 -20 28
-54 74 -61 23 -4 32 2 23 16 -22 35 7 84 45 76 19 -3 38 -22 41 -41z m-4114
-20 c2 -25 1 -54 -1 -65 -2 -11 -5 -35 -7 -55 -1 -19 -13 -35 -26 -35 -14 0
-21 25 -17 65 4 36 7 81 8 100 2 52 41 43 43 -10z m438 10 c0 -14 -20 -26 -45
-28 -43 -3 -57 -2 -140 7 -85 10 -26 47 75 46 74 0 110 -8 110 -25z m2085 17
c30 -1 55 -10 55 -21 0 -24 -110 -34 -207 -18 -42 7 -69 5 -60 -4 10 -8 40
-20 67 -25 36 -6 30 -9 -25 -11 -62 -3 -75 4 -75 36 0 41 32 53 128 48 34 -2
87 -5 117 -5z m880 -9 c-6 -11 0 -12 13 -4 30 18 398 21 416 4 35 -35 -3 -38
-492 -34 -266 2 -352 -3 -365 -23 -13 -20 -16 -20 -17 -1 0 14 -7 24 -15 23
-47 -8 -82 5 -74 27 7 18 82 25 278 26 161 0 263 -7 256 -18z m-2391 -115 c28
-28 12 -78 -25 -78 -35 0 -55 35 -41 71 13 35 36 37 66 7z m726 -39 c0 -30
-172 -35 -655 -20 -14 1 -25 12 -25 26 0 19 81 25 340 25 295 0 340 -4 340
-31z m2136 -6 c37 -37 -206 -46 -251 -9 -17 15 -25 14 -25 -2 0 -31 -100 -28
-102 3 -1 20 -3 20 -11 0 -13 -32 -72 -32 -103 -1 -18 18 -24 18 -24 0 0 -13
-22 -22 -49 -20 -36 4 -44 11 -28 29 41 50 544 49 593 0z m1203 2 c2 34 117
32 151 -3 41 -40 26 -44 -120 -32 -73 6 -136 6 -140 1 -15 -26 -230 3 -230 31
0 38 272 41 287 3 5 -14 11 -7 13 15 3 40 3 40 20 0 9 -22 18 -29 19 -15z
m-2039 -6 c0 -37 -40 -46 -143 -30 -50 8 -111 7 -134 -2 -34 -12 -43 -8 -43
21 0 34 17 37 160 37 114 -1 160 -8 160 -26z m200 1 c0 -21 -21 -30 -70 -30
-49 0 -70 9 -70 30 0 21 21 30 70 30 49 0 70 -9 70 -30z m1440 1 c0 -17 -35
-24 -120 -23 -66 1 -120 -5 -120 -14 0 -9 -19 -11 -41 -4 -23 8 -140 13 -260
13 -177 -1 -219 5 -219 28 0 24 63 28 380 27 293 -1 380 -7 380 -27z m2286
-17 c123 4 192 0 185 -12 -7 -11 9 -16 37 -11 27 5 54 2 60 -7 5 -9 51 -15
102 -13 50 1 96 -5 102 -14 6 -10 18 -13 27 -7 37 22 162 28 149 7 -8 -13 -2
-18 14 -12 15 5 51 1 78 -10 84 -31 706 -41 688 -10 -11 20 -8 20 13 0 20 -19
32 -19 56 0 23 20 31 20 38 0 5 -14 21 -25 37 -25 37 0 36 -29 -2 -60 -16 -14
-30 -35 -30 -47 0 -13 8 -11 18 5 26 41 62 7 62 -59 0 -47 -9 -60 -45 -62
l-45 -2 45 -9 c25 -5 45 -17 45 -27 0 -11 -20 -20 -45 -22 l-45 -2 45 -9 c25
-5 45 -16 45 -26 0 -9 -18 -12 -40 -6 -22 6 -40 1 -40 -11 0 -12 13 -17 28
-11 15 6 34 1 41 -11 7 -11 0 -21 -17 -21 -16 0 -36 -10 -44 -23 -10 -16 -1
-20 29 -12 29 8 43 2 43 -17 0 -15 -20 -29 -45 -30 -34 -2 -36 -5 -10 -12 19
-5 35 -11 36 -12 34 -120 16 -187 -48 -176 -9 2 -13 -8 -8 -22 5 -14 24 -23
42 -20 19 3 33 -7 33 -25 0 -18 -17 -31 -40 -31 -66 0 -51 -73 19 -87 86 -17
85 -133 -2 -133 -47 0 -57 -8 -57 -50 0 -27 10 -50 21 -50 12 0 16 9 9 20 -7
11 1 14 20 7 18 -7 28 -24 22 -39 -6 -15 4 -35 23 -45 38 -22 54 -224 19 -247
-15 -9 -14 -29 3 -67 17 -39 18 -61 2 -80 -16 -19 -12 -31 15 -47 20 -11 27
-21 16 -21 -11 -1 -20 -50 -19 -109 0 -60 -7 -105 -15 -99 -9 5 -16 -5 -16
-23 0 -18 7 -28 15 -23 8 5 17 -62 19 -150 2 -95 -4 -153 -15 -146 -11 6 -19
2 -19 -10 0 -11 9 -21 20 -21 11 0 20 -10 20 -21 0 -12 -7 -17 -15 -12 -8 5
-15 -39 -16 -99 0 -59 7 -108 15 -108 27 0 18 -60 -9 -62 -20 -1 -20 -3 0 -11
14 -6 25 -45 25 -90 0 -44 -7 -75 -16 -70 -8 6 -15 -7 -15 -28 0 -22 7 -39 15
-39 9 0 16 -14 16 -31 0 -17 -7 -27 -17 -21 -9 6 -16 -2 -16 -18 0 -16 7 -24
16 -18 10 6 17 -31 17 -81 0 -59 -9 -91 -25 -91 -15 0 -17 -6 -5 -15 29 -22
38 -92 9 -75 -17 11 -17 5 0 -28 15 -28 15 -42 2 -42 -12 0 -21 -13 -21 -30 0
-16 11 -30 25 -30 17 -1 15 -7 -5 -22 -23 -16 -24 -24 -5 -31 14 -6 25 -45 25
-90 0 -44 -8 -74 -19 -68 -10 7 -17 -6 -16 -29 2 -22 12 -40 22 -40 10 0 10
-11 -1 -25 -25 -33 -29 -119 -5 -104 11 6 19 -9 19 -35 -1 -37 -4 -40 -20 -16
-11 17 -20 21 -20 9 0 -12 11 -32 25 -46 20 -20 19 -29 -5 -44 -17 -10 -21
-19 -10 -19 12 0 21 -35 21 -78 0 -48 -8 -74 -21 -67 -11 7 -6 -5 11 -27 36
-42 29 -116 -8 -95 -15 8 -15 4 2 -14 30 -32 33 -67 5 -49 -11 7 -20 -2 -20
-20 0 -18 7 -28 17 -22 9 6 15 -9 13 -33 -2 -23 -14 -46 -27 -51 -13 -4 -18
-16 -12 -26 6 -10 -3 -18 -21 -18 -18 0 -27 9 -20 20 7 11 -2 20 -19 20 -22 0
-31 -20 -31 -70 l0 -70 112 0 c122 0 142 -35 37 -64 -48 -12 -2089 -10 -2159
3 -11 2 -369 2 -795 1 -426 -2 -783 3 -795 10 -11 7 -20 4 -20 -6 0 -10 -23
-14 -51 -9 -33 7 -48 20 -41 38 6 15 2 27 -9 27 -10 0 -19 -12 -19 -26 0 -27
-97 -31 -137 -6 -11 7 -26 4 -32 -7 -7 -11 -61 -17 -120 -14 -88 4 -105 0 -97
-26 6 -22 2 -20 -14 4 -12 20 -30 31 -40 25 -9 -6 -23 -2 -30 10 -7 12 15 20
58 20 38 0 74 7 79 15 5 8 -382 15 -859 15 -681 0 -868 5 -868 25 0 20 409 25
1980 25 1747 0 1980 -4 1980 -30 0 -26 114 -30 910 -30 501 0 910 7 910 15 -1
42 -27 105 -44 105 -10 0 -13 -9 -6 -20 18 -29 -552 -22 -589 7 -22 18 -25 17
-14 -2 10 -17 2 -25 -26 -25 -22 0 -41 11 -41 25 -1 19 -4 19 -16 1 -8 -13
-46 -23 -85 -23 -38 1 -91 0 -119 -2 -27 -3 -70 0 -95 6 -25 6 -45 3 -45 -8 0
-10 -13 -13 -28 -7 -43 16 -532 20 -532 4 0 -8 -29 -1 -65 14 -36 15 -63 36
-61 46 2 10 -20 15 -50 12 -82 -11 -167 11 -150 39 10 17 7 17 -15 0 -19 -15
-136 -21 -344 -20 -187 2 -315 -5 -315 -16 0 -10 -10 -9 -22 3 -14 14 -43 16
-80 5 -50 -14 -58 -11 -58 24 0 21 8 34 18 28 10 -6 14 6 8 28 -5 21 -22 43
-37 49 -32 12 -57 -19 -39 -48 7 -11 3 -20 -8 -20 -45 0 -45 48 0 82 34 26 39
38 18 40 -16 1 -43 4 -60 7 -16 2 -46 6 -66 8 -20 1 -32 11 -26 20 6 9 -2 16
-18 16 -16 0 -25 -5 -21 -11 4 -7 -42 -13 -101 -15 -60 -2 -103 5 -97 15 7 10
-9 10 -38 -1 -27 -10 -55 -12 -62 -5 -19 19 -149 18 -138 -1 5 -8 0 -15 -12
-15 -11 0 -21 11 -21 25 -1 17 -7 15 -20 -5 -11 -16 -20 -21 -20 -10 0 11 -8
9 -16 -5 -19 -29 -478 -43 -523 -16 -18 12 -23 10 -13 -6 17 -27 -1 -27 -58
-3 -34 15 -35 17 -5 19 19 0 35 10 35 20 0 11 -15 14 -33 7 -23 -9 -29 -5 -19
11 8 12 27 23 43 23 16 0 29 10 29 21 0 12 8 16 18 10 10 -6 13 9 7 34 -10 39
-8 42 20 19 24 -20 35 -20 46 -2 11 17 6 19 -13 8 -23 -13 -23 -11 -2 12 22
24 28 23 45 -2 10 -17 19 -20 19 -7 0 15 35 23 96 22 53 -1 109 6 123 15 20
12 23 9 10 -12 -13 -22 -11 -23 12 -6 17 14 131 23 284 24 270 2 355 28 349
108 -1 19 -6 30 -11 26 -5 -5 -23 6 -41 25 -18 19 -50 35 -72 34 -22 0 -47 9
-55 20 -9 13 -15 11 -15 -6 0 -24 -5 -24 -34 0 -23 18 -29 19 -19 2 22 -36
-37 -32 -67 5 -14 17 -17 30 -7 31 9 0 1 9 -18 21 -20 11 -31 28 -25 38 6 10
-7 14 -29 10 -23 -4 -41 1 -41 11 0 11 -36 19 -80 19 -44 0 -80 -10 -80 -21 0
-12 -10 -15 -23 -7 -23 14 -127 26 -267 29 -70 2 -74 4 -30 19 44 14 45 16 8
18 -23 1 -47 -4 -55 -11 -23 -24 -113 -25 -113 -2 0 12 -6 16 -13 9 -7 -8 -26
2 -42 21 -15 19 -21 22 -13 7 8 -16 6 -23 -5 -17 -10 7 -20 41 -23 77 -3 36
-15 78 -28 93 -15 18 -16 33 -2 47 26 26 246 40 246 15 0 -10 18 -9 40 3 23
12 52 15 65 6 33 -20 77 -26 67 -9 -11 18 174 3 195 -17 9 -8 41 -3 71 12 30
15 74 23 98 19 24 -5 44 1 44 13 0 12 14 10 34 -7 23 -18 29 -19 19 -2 -9 14
-6 25 6 25 11 0 21 -8 21 -18 0 -19 478 -17 511 2 11 6 48 10 84 8 36 -1 65 5
65 14 0 9 10 10 23 2 12 -8 50 -13 84 -12 34 1 75 -9 91 -22 24 -20 26 -18 12
6 -15 26 -13 26 16 3 22 -18 34 -20 34 -5 0 12 20 22 45 22 61 1 89 21 111 80
22 59 11 100 -26 100 -15 0 -33 9 -41 21 -19 32 33 83 75 72 20 -5 36 -1 36
10 0 11 9 14 20 7 12 -7 14 -23 7 -36 -8 -13 3 -9 25 8 37 32 98 31 79 -1 -6
-8 57 -14 138 -13 81 1 143 9 138 17 -15 24 93 25 153 1 61 -25 100 -25 100
-1 1 20 4 20 16 0 15 -23 250 -39 323 -22 101 25 130 128 56 202 -47 47 -335
71 -335 28 0 -10 -15 -6 -34 10 -18 15 -28 17 -20 4 9 -15 -10 -25 -55 -31
-37 -4 -65 -2 -60 5 4 7 -5 12 -21 12 -16 0 -24 -7 -18 -16 6 -9 -13 -17 -42
-17 -29 0 -47 8 -41 19 7 10 -11 14 -40 9 -29 -5 -48 -2 -42 6 10 17 -110 19
-139 2 -10 -6 -34 -8 -53 -5 -19 3 -30 -3 -24 -13 13 -20 7 -22 -91 -27 -38
-3 -74 2 -80 9 -5 8 -39 19 -75 26 -65 13 -65 12 -65 -66 l0 -80 -98 0 c-80 0
-99 7 -107 39 -14 53 -2 61 98 61 58 0 87 9 87 26 0 30 -103 34 -125 4 -9 -13
-14 -12 -15 2 0 12 -13 21 -29 21 -16 0 -25 -7 -19 -16 6 -9 1 -17 -10 -17
-11 0 -25 8 -31 19 -7 10 -27 18 -46 18 -97 -1 -345 20 -382 32 -24 8 -43 6
-43 -4 0 -10 -20 -17 -45 -15 -25 3 -64 -3 -87 -11 -23 -9 -54 -8 -69 2 -15 9
-37 10 -48 1 -22 -16 -198 64 -180 82 5 6 -5 23 -24 38 -30 24 -32 24 -17 -2
15 -25 12 -26 -13 -5 -17 13 -34 21 -39 17 -4 -5 -46 -1 -93 7 -47 9 -90 8
-96 -1 -11 -17 -143 -11 -162 8 -6 6 -22 7 -35 2 -13 -5 -46 15 -73 45 -27 29
-35 47 -19 39 17 -8 13 -1 -9 17 -21 17 -50 31 -65 31 -14 0 -26 9 -26 20 0
27 27 25 57 -5 20 -20 23 -19 13 7 -9 24 2 36 39 43 63 12 154 -4 141 -25 -14
-22 54 -45 68 -23 7 10 59 15 117 12 60 -3 100 2 94 13 -15 23 26 23 145 -2
131 -27 306 -35 306 -13 0 9 25 11 55 2 30 -8 75 -15 99 -16 24 0 39 -8 34
-16 -5 -8 0 -19 10 -26 10 -6 23 4 30 22 7 18 19 27 26 20 7 -7 23 -3 37 8 14
11 32 19 42 16 44 -10 127 45 127 84 0 64 -37 119 -70 106 -17 -6 -30 -1 -30
11 0 12 -10 22 -21 22 -12 0 -16 -9 -9 -20 17 -28 -17 -25 -45 3 -29 29 -125
41 -125 16 0 -11 -16 -19 -35 -19 -30 1 -31 3 -5 20 26 16 25 19 -6 20 -19 0
-40 -13 -47 -30 -6 -16 -26 -30 -44 -30 -23 1 -26 5 -9 16 17 11 5 23 -35 38
-36 14 -59 15 -59 3 0 -11 -8 -14 -19 -8 -10 6 -23 3 -30 -7 -6 -10 -38 -16
-71 -14 -33 2 -60 -2 -60 -10 0 -8 -29 -14 -65 -14 -36 0 -74 -3 -85 -6 -31
-9 -110 22 -110 43 0 11 -14 19 -32 19 -20 0 -28 -11 -21 -30 7 -18 1 -30 -15
-30 -48 0 -52 55 -6 70 24 8 51 13 59 12 8 -1 15 10 15 26 0 47 55 76 154 81
53 4 113 13 134 22 25 10 34 8 26 -5 -8 -12 17 -17 69 -12 63 7 77 3 65 -18
-13 -21 -10 -21 16 0 19 15 64 22 109 17 42 -4 97 0 122 9 31 12 45 10 45 -7
1 -19 4 -19 16 -1 18 29 144 28 144 -1 0 -11 14 -3 31 18 18 22 25 26 17 9 -8
-16 -8 -24 0 -17 9 8 15 21 15 30 -1 9 13 38 30 64 17 27 22 42 11 35 -12 -7
-27 5 -34 27 -7 24 -23 35 -41 28 -16 -6 -29 -4 -29 6 0 9 -29 16 -65 15 -36
-2 -78 7 -94 20 -22 17 -25 16 -12 -6 12 -19 8 -24 -11 -17 -15 5 -27 18 -25
27 2 10 -9 30 -25 44 -15 14 -28 20 -28 14 0 -6 -13 0 -28 14 -15 14 -24 33
-19 41 5 8 -11 15 -37 15 -37 -1 -40 -4 -16 -20 23 -15 14 -19 -36 -20 -45 0
-62 7 -52 23 10 17 -16 20 -99 10 -62 -7 -113 -6 -113 2 0 9 -37 13 -83 8 -57
-5 -78 -1 -68 15 9 14 -8 22 -49 22 -36 0 -57 -8 -50 -20 7 -12 -16 -20 -57
-20 -38 0 -75 11 -81 25 -10 20 -14 20 -24 0 -6 -14 -35 -25 -65 -25 -41 1
-47 5 -23 20 24 16 21 19 -16 20 -26 0 -41 -9 -34 -20 7 -11 -2 -20 -19 -20
-17 0 -31 9 -31 20 0 11 -22 20 -50 20 -31 0 -50 11 -50 29 0 18 12 25 28 19
20 -8 27 1 23 25 -3 21 5 44 17 52 31 20 132 19 132 -2 0 -10 36 -11 79 -3 57
10 76 8 67 -8 -10 -15 -5 -15 15 1 16 12 86 22 156 23 146 0 211 40 190 119
-6 24 -20 40 -29 34 -10 -6 -18 -2 -18 10 0 11 -12 21 -28 21 -15 0 -38 13
-50 28 -26 31 -251 43 -232 12 6 -10 -52 -16 -135 -13 -80 3 -159 -2 -177 -10
-39 -18 -122 1 -107 25 6 10 -8 18 -31 18 -24 0 -37 -9 -30 -20 8 -13 -10 -19
-47 -16 -33 2 -56 10 -52 18 5 8 -91 12 -213 11 -122 -2 -226 4 -232 13 -5 9
-27 10 -48 3 -29 -9 -38 -2 -38 30 0 22 -9 41 -19 41 -11 0 -15 -16 -9 -35 9
-30 8 -30 -13 2 -38 60 -10 64 434 60 229 -2 424 1 434 7 24 15 533 20 533 5
0 -6 157 -11 350 -10 192 0 350 8 350 17 0 9 11 9 25 1 41 -27 303 -26 320 0
9 14 15 15 15 2 0 -15 59 -19 175 -14 96 5 200 9 230 9 30 0 55 8 55 16 0 9
25 23 55 31 90 26 -505 68 -685 49 -17 -2 -614 -2 -825 -1 -48 1 -65 10 -65
36 0 33 43 35 655 32 851 -4 792 -1 778 -37 -8 -21 1 -30 28 -30 46 0 20 79
-27 81 -54 4 62 36 136 39 l80 3 -100 31 c-55 17 -167 34 -250 38 -82 4 -159
8 -170 9 -11 1 -83 0 -160 -2 -77 -2 -230 -3 -340 -2 -521 3 -650 0 -639 -18
17 -28 -18 -23 -50 6 -21 20 -24 20 -13 0 11 -19 -18 -24 -117 -21 -72 2 -131
11 -131 21 0 9 -17 7 -39 -4 -21 -12 -64 -20 -95 -20 -49 2 -51 4 -16 19 27
11 -8 16 -105 17 -79 0 -153 6 -165 13 -11 7 -20 3 -20 -10 0 -15 -11 -15 -40
0 -46 25 -55 70 -10 53 39 -15 39 15 0 47 -16 13 -25 33 -19 42 6 10 -5 18
-25 18 -20 0 -49 10 -66 22 -23 16 -19 18 20 8 46 -11 47 -10 10 13 -61 38
-134 36 -104 -2 17 -21 7 -19 -34 7 -57 36 -60 36 -85 1 -15 -20 -27 -27 -27
-15 0 12 -30 20 -68 19 -107 -5 -64 41 54 59 57 9 113 13 124 9 60 -18 235 -9
254 14 11 14 14 25 5 25 -9 0 0 12 20 27 34 25 34 28 3 40 -19 7 -29 22 -22
33 8 12 -28 21 -94 23 -98 2 -101 3 -36 17 l70 15 -75 2 c-41 2 -75 -6 -75
-17 0 -11 -38 -19 -85 -19 -65 1 -75 6 -45 18 26 11 -19 17 -125 17 -110 0
-165 -8 -165 -23 -1 -15 -7 -14 -17 3 -11 16 -50 24 -106 22 -93 -5 -137 9
-137 46 0 12 14 10 35 -7 32 -24 32 -24 8 8 -24 30 -24 35 0 35 31 0 39 122 9
143 -86 62 31 73 634 64 332 -5 613 -9 624 -8 11 0 180 4 376 7 263 5 361 13
373 32 8 14 19 24 23 22 23 -8 76 27 65 44 -6 11 7 10 31 -3 23 -12 42 -14 42
-5 0 10 285 18 641 18 352 0 645 6 652 12 7 7 27 5 45 -4 17 -8 120 -12 228
-8z m1294 -4 c0 -17 -18 -30 -40 -30 -22 0 -40 13 -40 30 0 17 18 30 40 30 22
0 40 -13 40 -30z m-7344 -77 c8 -40 -50 -67 -80 -37 -16 16 -15 31 4 54 31 37
67 30 76 -17z m561 8 c14 0 23 -11 19 -24 -9 -26 -533 -38 -549 -13 -25 41
187 56 530 37z m7284 -56 c0 -45 0 -927 0 -1040 -1 -47 -10 -85 -21 -85 -11 0
-20 41 -20 90 0 58 -9 91 -25 92 -20 1 -20 3 0 11 18 7 25 73 25 229 0 160 -7
218 -25 220 -20 1 -20 3 0 11 18 7 25 71 25 219 0 152 -7 208 -25 210 -20 1
-20 3 0 11 14 6 25 23 25 39 0 15 9 28 20 28 11 0 20 -16 21 -35z m-5561 -105
c0 -80 0 -80 -80 -80 -78 0 -120 93 -67 147 54 53 147 11 147 -67z m-2284 25
c-10 -52 -76 -58 -76 -6 0 28 13 41 41 41 29 0 40 -11 35 -35z m561 16 c44 -1
64 -9 58 -26 -9 -28 -571 -37 -588 -10 -23 37 24 45 236 41 125 -2 257 -4 294
-5z m-561 -128 c8 -40 -50 -67 -80 -37 -16 16 -15 31 4 54 31 37 67 30 76 -17z
m174 7 c33 0 105 1 160 2 157 2 174 0 165 -27 -9 -28 -451 -38 -468 -11 -17
28 15 58 50 47 18 -5 60 -10 93 -11z m1918 -43 c-10 -16 -4 -20 19 -11 18 7
33 4 33 -7 0 -10 -31 -19 -70 -19 -81 0 -89 14 -25 39 60 24 59 24 43 -2z
m-2188 -97 c0 -29 -13 -40 -50 -40 -37 0 -50 11 -50 40 0 29 13 40 50 40 37 0
50 -11 50 -40z m188 28 c62 -24 33 -60 -46 -59 -46 1 -73 9 -66 21 6 11 -4 8
-22 -7 -29 -24 -34 -23 -34 3 0 20 23 34 65 40 36 4 67 9 68 11 2 2 18 -2 35
-9z m-993 -63 c5 -16 -11 -25 -43 -25 -51 0 -66 19 -38 47 21 21 71 7 81 -22z
m3480 5 c110 3 165 -3 165 -18 0 -12 8 -10 18 5 19 30 85 24 83 -7 -1 -12
-103 -22 -256 -24 -140 -2 -264 -6 -275 -8 -11 -1 -26 -2 -33 -1 -6 1 -117 3
-245 4 -174 3 -232 10 -232 29 0 32 243 33 265 1 9 -14 14 -13 15 4 0 14 14
25 31 25 19 0 26 -9 17 -23 -10 -16 -5 -18 14 -5 42 27 206 28 223 1 9 -14 15
-8 15 17 0 24 7 31 15 18 9 -13 79 -20 180 -18z m405 -15 c1 -16 6 -18 15 -4
23 32 145 29 145 -3 0 -21 -31 -28 -120 -28 -93 0 -120 7 -120 30 0 17 18 30
40 30 22 0 40 -11 40 -25z m-2980 -68 c0 -39 -60 -59 -81 -26 -21 35 15 80 52
66 16 -6 29 -24 29 -40z m116 10 c30 7 140 12 244 10 246 -4 240 -3 240 -32 0
-19 -65 -24 -265 -23 -330 3 -316 1 -301 42 7 19 17 24 21 12 4 -14 28 -17 61
-9z m1812 -84 c-7 -18 -21 -33 -31 -33 -11 0 -14 9 -7 20 7 11 -1 14 -19 8
-17 -7 -31 -3 -31 8 0 12 20 24 45 28 57 10 59 8 43 -31z m352 9 c0 -10 -22
-16 -49 -13 -32 3 -45 -3 -37 -17 8 -12 -2 -10 -20 5 -24 20 -34 21 -34 4 0
-13 -9 -18 -20 -11 -45 28 -15 50 70 50 50 0 90 -8 90 -18z m212 -17 c3 -15 1
-19 -4 -9 -13 23 -135 12 -144 -14 -4 -12 -34 -22 -67 -22 -33 0 -54 8 -48 18
6 10 31 13 54 7 34 -9 41 -4 32 19 -9 25 6 30 80 28 57 -1 94 -12 97 -27z
m-2492 -38 c0 -37 -57 -58 -84 -31 -16 16 -15 31 2 52 29 34 82 21 82 -21z
m-918 -42 c2 -41 2 -80 2 -87 -1 -6 -4 -58 -6 -115 -3 -62 -14 -103 -29 -103
-18 0 -25 262 -10 375 6 43 42 -15 43 -70z m1613 57 c25 -1 45 -15 45 -30 0
-24 -61 -28 -360 -25 -262 2 -360 9 -360 27 0 32 336 47 675 28z m1345 -104
c0 -32 -11 -36 -75 -26 -118 19 -116 58 4 61 57 2 71 -5 71 -35z m645 23 c8
-1 15 -13 15 -28 0 -41 -628 -33 -635 8 -5 25 379 37 620 20z m391 -29 c6 -27
-18 -32 -170 -32 -156 0 -178 4 -180 36 -4 51 340 47 350 -4z m-3076 -23 c0
-16 -14 -36 -31 -42 -38 -15 -79 21 -60 51 20 33 91 26 91 -9z m340 1 c49 -30
-11 -46 -160 -43 -108 2 -160 11 -160 27 0 35 267 49 320 16z m2179 -95 c0 14
20 22 46 18 67 -10 54 -42 -20 -49 -57 -6 -65 -1 -64 40 2 43 3 44 19 6 9 -22
18 -29 19 -15z m-539 -8 c0 -15 -17 -27 -38 -27 -21 0 -43 -11 -49 -25 -8 -19
-14 -19 -29 3 -11 15 -29 21 -40 14 -26 -16 -51 20 -34 48 19 31 190 19 190
-13z m180 7 c1 -16 5 -17 15 -3 20 28 185 28 185 0 0 -11 8 -9 17 5 17 27 83
13 83 -18 0 -10 -94 -16 -210 -14 -144 2 -210 11 -210 27 0 12 27 24 60 25 34
1 60 -9 60 -22z m-2160 -25 c0 -16 -14 -36 -31 -42 -38 -15 -79 21 -60 51 20
33 91 26 91 -9z m59 -13 c1 17 29 25 86 22 47 -1 102 4 123 13 26 11 34 9 25
-6 -10 -16 3 -18 42 -8 73 19 145 6 145 -26 0 -20 -39 -26 -158 -24 -99 2
-154 10 -147 23 6 11 -1 9 -16 -5 -48 -45 -139 -32 -138 20 2 43 3 43 19 5 9
-22 18 -28 19 -14z m3836 -44 c6 -7 -10 -12 -37 -12 -26 0 -38 -7 -27 -15 12
-8 28 -31 35 -51 17 -47 -196 -41 -229 7 -17 24 -19 23 -10 -6 11 -33 -27 -35
-608 -35 l-619 0 0 58 0 58 274 3 c151 1 278 6 283 11 13 14 924 -4 938 -18z
m-1873 -51 c1 -21 4 -23 11 -6 14 34 47 32 47 -3 0 -16 11 -33 25 -39 14 -6
-11 -6 -55 0 -95 12 -210 9 -233 -5 -9 -6 -17 8 -17 30 0 31 15 41 75 46 130
11 145 8 147 -23z m346 -3 c29 -26 -32 -41 -139 -34 -95 6 -144 45 -75 61 50
11 192 -7 214 -27z m-2368 -9 c0 -16 -14 -36 -31 -42 -38 -15 -79 21 -60 51
20 33 91 26 91 -9z m495 13 c14 -1 25 -15 25 -32 0 -32 -473 -37 -493 -5 -24
39 218 59 468 37z m-1416 -41 c32 -20 18 -46 -30 -53 -17 -3 -29 11 -29 34 0
42 15 47 59 19z m921 -92 c0 -16 -14 -36 -31 -42 -38 -15 -79 21 -60 51 20 33
91 26 91 -9z m540 -13 c0 -33 -388 -53 -485 -24 -113 34 -20 58 225 58 230 0
260 -4 260 -34z m1605 14 c65 0 113 -8 110 -20 -6 -22 -254 -27 -268 -5 -14
22 16 62 31 42 6 -9 64 -17 127 -17z m-2145 -130 c0 -42 -67 -57 -90 -20 -18
30 7 60 51 60 26 0 39 -14 39 -40z m175 17 c18 11 162 12 500 4 27 -1 45 -14
45 -32 0 -23 -23 -29 -107 -27 -59 2 -115 -1 -125 -7 -10 -5 -65 -4 -123 4
-58 8 -105 6 -105 -4 0 -9 -11 -11 -24 -3 -13 8 -66 13 -118 10 -91 -4 -106
10 -80 72 1 2 28 -4 59 -13 32 -9 67 -11 78 -4z m1733 11 c45 -17 20 -46 -28
-34 -23 6 -40 1 -40 -13 0 -13 8 -18 19 -12 10 6 24 3 31 -9 7 -11 -6 -20 -29
-20 -26 0 -41 13 -41 37 0 59 27 75 88 51z m497 -10 c37 2 55 -7 55 -28 0 -36
-62 -40 -96 -6 -19 19 -24 19 -24 0 0 -17 -41 -24 -136 -22 -76 2 -157 -3
-180 -11 -35 -11 -44 -6 -44 26 0 36 14 40 142 41 79 0 148 5 154 12 7 6 26 5
43 -2 17 -7 56 -12 86 -10z m-2509 -143 c5 -26 -6 -35 -45 -35 -38 0 -51 10
-51 41 0 53 86 47 96 -6z m1999 -5 c-5 -27 0 -50 11 -50 35 0 -5 -27 -43 -30
-28 -2 -38 12 -39 54 -1 31 7 52 17 45 11 -6 19 -2 19 10 0 11 10 21 22 21 13
0 19 -21 13 -50z m-1675 0 c0 -37 -160 -42 -224 -8 -30 16 -37 16 -27 0 7 -12
0 -22 -18 -22 -17 0 -31 14 -31 30 0 24 30 30 150 30 120 0 150 -6 150 -30z
m2380 -10 c1 -24 4 -25 18 -3 12 20 69 27 215 26 448 -1 447 -1 447 -33 0 -36
-62 -40 -96 -6 -17 17 -24 18 -24 1 0 -12 -29 -22 -65 -22 -36 1 -96 1 -135 0
-325 -4 -380 1 -382 34 -2 31 -3 31 -11 0 -10 -37 -287 -47 -287 -11 0 11 -12
9 -26 -3 -43 -35 -274 -22 -274 16 0 27 41 31 310 31 262 0 310 -5 310 -30z
m1363 -5 c7 -11 17 -8 23 8 6 15 12 8 12 -18 2 -40 -5 -44 -50 -33 -29 8 -108
12 -175 10 -68 -2 -145 -3 -173 -3 -237 1 -260 4 -260 31 0 47 593 52 623 5z
m-3963 -95 c0 -26 -13 -40 -39 -40 -44 0 -69 30 -51 60 23 37 90 22 90 -20z
m705 22 c102 -1 135 -9 135 -30 0 -23 -71 -28 -411 -28 -284 0 -409 7 -404 21
4 12 34 25 66 30 32 4 60 9 62 11 3 4 214 2 552 -4z m1232 -193 c-4 -98 -12
-142 -25 -129 -31 31 -44 24 -44 -27 0 -36 9 -45 36 -38 25 7 36 -2 36 -28 -1
-27 -5 -30 -17 -11 -13 21 -21 21 -40 -2 -18 -22 -11 -38 32 -76 50 -44 51
-44 17 -3 -49 57 -36 57 43 -1 47 -35 84 -45 144 -40 50 3 81 -3 81 -16 0 -12
14 -17 31 -10 18 6 26 3 19 -8 -7 -11 -5 -20 5 -20 18 0 29 -79 31 -213 0 -56
8 -80 25 -74 24 9 54 -62 33 -82 -6 -6 -37 -11 -68 -11 -40 0 -77 -20 -115
-62 -59 -65 -68 -132 -16 -123 17 3 36 -8 42 -25 8 -21 40 -30 102 -30 59 0
91 -9 91 -25 1 -17 7 -15 20 5 18 29 29 13 21 -30 -2 -11 7 -9 21 4 39 39 98
-5 98 -74 0 -31 -9 -63 -21 -70 -11 -7 -18 -28 -15 -45 4 -18 -16 -44 -44 -59
-30 -15 -38 -26 -20 -27 21 -2 22 -5 5 -12 -14 -6 -22 -16 -17 -24 4 -7 -13
-14 -40 -16 -26 -1 -43 5 -37 15 18 29 -70 20 -143 -14 -63 -30 -94 -88 -48
-88 11 0 20 12 20 28 0 33 78 46 198 32 83 -9 144 -60 74 -60 -18 0 -32 11
-32 25 -1 18 -5 19 -15 2 -9 -13 -56 -21 -111 -19 -92 4 -140 -18 -101 -45 30
-21 19 -69 -17 -74 -19 -3 -46 9 -60 27 -22 26 -21 29 2 15 18 -11 24 -10 15
4 -7 12 -32 16 -56 10 -32 -8 -39 -5 -27 15 11 17 8 21 -7 12 -13 -8 -23 -3
-23 10 0 14 -5 19 -12 13 -6 -6 -2 -29 9 -49 23 -43 -1 -98 -33 -78 -12 7 -28
1 -37 -13 -22 -34 -25 -116 -4 -103 9 6 17 -8 17 -31 0 -23 -14 -48 -32 -54
-25 -10 -26 -16 -5 -31 20 -14 21 -22 3 -29 -13 -5 -18 -23 -12 -40 7 -17 0
-38 -14 -47 -14 -8 -18 -26 -10 -40 12 -19 19 -18 34 3 15 20 17 17 8 -11 -7
-20 -1 -51 13 -68 22 -27 18 -29 -32 -17 -37 10 -52 7 -43 -6 7 -12 26 -21 42
-21 19 0 25 -10 16 -25 -8 -14 -7 -18 2 -10 9 8 31 2 49 -14 18 -16 82 -32
142 -36 73 -4 107 -14 104 -30 -3 -14 9 -25 25 -25 23 0 29 -17 23 -70 -4 -38
0 -70 10 -70 9 0 16 -16 15 -35 -1 -21 -5 -25 -11 -10 -17 43 -44 27 -32 -18
8 -30 4 -39 -12 -29 -13 8 -23 3 -23 -12 -1 -19 -6 -18 -20 4 -17 26 -19 25
-20 -5 0 -31 -22 -44 -65 -37 -8 1 -15 -8 -15 -20 0 -13 -21 -19 -49 -13 -28
5 -47 4 -42 -3 4 -7 -6 -24 -21 -38 -18 -16 -28 -18 -28 -4 0 12 -29 35 -65
50 -36 16 -51 29 -35 30 27 0 27 3 0 20 -22 14 -23 19 -4 20 21 0 20 7 -4 31
-22 22 -30 70 -29 175 1 79 -1 153 -3 164 -13 59 2 108 30 97 17 -6 30 -1 30
11 0 12 -7 21 -15 20 -40 -7 -66 4 -55 22 7 11 12 92 12 180 0 113 8 167 29
188 17 17 21 34 10 41 -10 7 -15 30 -11 51 4 22 0 40 -9 40 -28 0 -24 303 4
337 20 24 20 28 0 16 -19 -11 -25 8 -25 76 0 59 9 92 25 93 20 1 20 3 0 11
-32 13 -32 92 0 124 20 20 19 28 -2 41 -21 13 -22 33 -5 94 14 51 15 80 2 85
-28 9 -25 170 4 199 19 19 18 24 -2 24 -21 0 -22 6 -3 29 16 19 18 40 4 65
-37 70 -36 376 2 354 20 -11 20 -8 0 13 -30 32 -34 107 -5 89 11 -7 20 -3 20
10 0 15 12 15 41 -1 37 -19 41 -38 36 -170z m448 161 c145 3 215 -3 215 -18 1
-15 6 -15 15 -1 21 28 550 29 570 0 9 -14 14 -14 15 0 0 32 75 30 88 -2 9 -25
-151 -45 -251 -32 -7 1 -113 3 -235 4 -152 2 -222 10 -222 26 -1 16 -5 16 -16
-1 -11 -18 -86 -23 -260 -20 -138 2 -244 -4 -244 -14 0 -10 -5 -13 -12 -7 -35
35 15 91 68 76 30 -8 151 -13 269 -11z m-2385 -110 c0 -42 -67 -57 -90 -20
-18 30 7 60 51 60 26 0 39 -14 39 -40z m365 22 c108 -2 135 -8 135 -33 0 -26
-36 -30 -241 -28 -160 2 -238 11 -234 25 4 11 27 22 51 24 24 2 48 8 54 13 5
6 30 8 55 5 25 -2 106 -5 180 -6z m1875 -73 c0 -20 -24 -29 -80 -29 -55 0 -80
9 -80 28 0 18 26 28 80 28 57 1 80 -7 80 -27z m280 -1 c0 -16 -43 -24 -130
-26 -102 -1 -130 5 -130 28 0 23 28 28 130 26 86 -2 130 -12 130 -28z m365 15
c8 -2 15 -12 15 -24 0 -13 -65 -20 -180 -17 -129 2 -180 10 -180 28 0 21 250
30 345 13z m381 -17 c-15 -37 -346 -37 -346 0 0 20 44 26 178 26 136 -1 175
-7 168 -26z m-3266 -66 c0 -26 -13 -40 -39 -40 -44 0 -69 30 -51 60 23 37 90
22 90 -20z m302 -23 c-27 -21 -61 -34 -77 -28 -16 6 -68 11 -117 11 -65 0 -88
8 -88 30 0 25 27 30 141 28 77 -2 146 3 153 9 7 7 18 8 24 1 7 -6 -10 -29 -36
-51z m318 13 c0 -24 -30 -30 -152 -30 -134 0 -150 4 -128 30 17 21 63 30 152
30 100 0 128 -6 128 -30z m3763 -10 c10 -69 8 -70 -248 -72 -170 -1 -255 6
-255 20 -1 16 -5 15 -15 0 -19 -28 -409 -27 -430 2 -10 13 -20 13 -30 -1 -12
-17 -231 -24 -265 -9 -5 3 -19 3 -30 0 -62 -15 -150 -10 -150 9 -1 14 -5 14
-15 0 -22 -30 -74 -23 -80 11 -6 32 1140 44 1190 13 12 -7 45 -4 73 6 29 11
52 13 52 5 0 -9 33 -12 72 -8 47 6 79 -1 92 -19 14 -20 17 -15 10 18 -6 25 -2
45 8 45 10 0 19 -9 21 -20z m-2025 -50 c0 -22 -6 -29 -11 -15 -6 14 -19 25
-30 25 -11 0 -15 -7 -10 -16 6 -8 -30 -15 -78 -15 -49 0 -89 5 -89 11 0 6 -17
11 -39 11 -21 0 -34 -6 -30 -13 5 -7 -14 -13 -41 -13 -34 0 -50 11 -50 34 0
30 24 34 190 32 177 -1 190 -4 188 -41z m342 29 c0 -8 25 -9 55 -4 41 8 49 4
34 -13 -37 -39 -109 -44 -109 -7 0 28 -4 28 -27 -4 -15 -20 -32 -28 -39 -18
-7 11 -59 14 -123 7 -110 -12 -172 29 -66 44 83 11 275 8 275 -5z m-2804 -84
c5 -26 -6 -35 -45 -35 -38 0 -51 10 -51 41 0 53 86 47 96 -6z m164 -5 c0 -21
-21 -30 -70 -30 -49 0 -70 9 -70 30 0 21 21 30 70 30 49 0 70 -9 70 -30z
m3051 -25 c43 -58 -22 -119 -75 -71 -33 30 -41 30 -57 5 -15 -23 -19 -21 -19
11 0 22 -7 31 -15 20 -24 -32 -109 -36 -127 -7 -13 20 -17 21 -18 2 0 -18 -41
-25 -145 -23 -80 1 -154 0 -165 -2 -65 -14 -170 3 -170 27 0 22 55 28 261 29
143 1 269 8 280 14 10 7 19 5 19 -4 0 -26 146 -17 155 10 12 35 46 30 76 -11z
m-1451 -24 c0 -21 -7 -43 -16 -48 -28 -18 -70 22 -58 55 18 45 74 40 74 -7z
m592 -1 c9 2 20 -6 24 -17 4 -12 -56 -23 -145 -26 -127 -6 -151 -2 -151 25 0
24 23 32 90 35 50 2 90 -6 90 -17 0 -11 9 -20 20 -20 11 0 19 7 18 15 -6 38 4
53 20 28 9 -14 24 -25 34 -23z m2393 9 c30 0 55 7 55 15 0 41 30 10 33 -34 1
-28 -5 -50 -15 -50 -10 0 -18 10 -18 21 0 12 -9 16 -20 9 -11 -7 -153 -11
-315 -10 -162 2 -446 2 -630 1 -260 -2 -335 4 -335 23 -1 18 -5 19 -15 4 -22
-32 -185 -34 -185 -3 0 33 204 40 225 8 9 -14 15 -15 15 -2 0 14 182 22 552
23 303 2 557 8 563 15 7 6 17 5 24 -4 6 -8 36 -15 66 -16z m-3125 -19 c0 -17
-18 -30 -40 -30 -22 0 -40 13 -40 30 0 17 18 30 40 30 22 0 40 -13 40 -30z
m-1525 -45 c11 -33 -52 -56 -79 -29 -11 11 -14 31 -6 43 17 29 74 19 85 -14z
m340 18 c132 -2 165 -9 165 -33 0 -33 -17 -36 -180 -29 -60 3 -137 6 -170 7
-33 1 -73 10 -88 20 -19 13 -24 11 -14 -5 8 -13 5 -23 -7 -23 -21 0 -29 45
-11 63 5 5 39 8 75 6 36 -2 139 -5 230 -6z m1185 -103 c0 -27 -13 -40 -40 -40
-27 0 -40 13 -40 40 0 27 13 40 40 40 27 0 40 -13 40 -40z m908 28 c45 -17 40
-68 -7 -68 -44 0 -69 30 -51 60 14 23 17 24 58 8z m512 -11 c0 -9 11 -12 25
-8 93 29 219 29 208 1 -7 -17 -4 -30 6 -30 10 0 21 8 24 18 8 20 257 41 257
22 0 -7 27 -9 60 -4 46 6 60 1 60 -24 0 -40 -180 -48 -181 -7 0 14 -9 9 -21
-10 -11 -20 -30 -30 -41 -23 -11 6 -154 13 -319 13 -287 2 -354 13 -289 49 37
21 211 23 211 3z m-247 -28 c0 -16 -7 -29 -16 -29 -9 0 -17 11 -17 25 -1 16
-6 18 -15 4 -25 -35 -165 -37 -165 -2 0 23 25 30 107 30 79 0 106 -7 106 -28z
m1041 0 c40 -40 31 -46 -49 -34 -37 5 -65 21 -65 37 0 38 75 36 114 -3z
m-3866 -1 c51 -20 38 -68 -18 -68 -37 0 -50 11 -50 40 0 42 16 48 68 28z m392
-38 c0 -24 -32 -30 -170 -30 -138 0 -170 6 -170 30 0 24 32 30 170 30 138 0
170 -6 170 -30z m2581 -83 c0 -24 -99 -32 -336 -29 -107 1 -145 9 -145 29 0
29 479 29 481 0z m399 2 c0 -17 9 -26 20 -19 11 7 20 4 20 -6 0 -15 -100 -15
-355 1 -91 6 2 35 130 40 85 4 162 9 170 11 8 2 15 -10 15 -27z m-3240 -29 c0
-25 -13 -40 -37 -40 -47 0 -63 17 -49 52 16 44 86 35 86 -12z m3570 0 c7 -11
1 -21 -14 -22 -14 0 -42 -4 -61 -8 -35 -7 -46 12 -22 37 21 20 83 16 97 -7z
m-265 -87 c100 -2 179 6 183 17 5 11 10 3 10 -17 2 -29 8 -33 29 -16 15 13
100 22 199 21 95 -1 182 5 193 12 30 18 51 -48 24 -75 -17 -17 -23 -14 -23 11
0 40 -33 44 -69 8 -16 -16 -65 -24 -123 -22 -276 12 -328 18 -329 37 0 12 -12
-1 -27 -27 -15 -26 -30 -38 -34 -26 -5 12 -51 24 -103 27 -52 2 -95 11 -95 19
0 7 -14 19 -31 26 -25 9 -29 2 -18 -31 9 -28 6 -38 -9 -28 -39 24 -27 97 13
81 19 -8 114 -16 210 -17z m967 1 c17 6 28 -3 28 -22 0 -38 -79 -45 -82 -7 -1
20 -3 20 -11 0 -13 -31 -179 -34 -198 -4 -7 12 -7 28 0 35 7 7 22 0 32 -17 11
-17 19 -20 19 -5 0 26 139 45 167 23 10 -8 30 -9 45 -3z m110 -9 c1 -21 5 -25
11 -10 6 14 28 25 50 25 24 0 34 -9 26 -22 -8 -12 9 -7 37 11 48 31 52 31 72
-3 20 -34 21 -34 21 3 1 27 7 33 22 18 26 -26 2 -91 -27 -73 -12 7 -66 11
-121 8 -92 -4 -132 15 -133 63 0 32 40 13 42 -20z m-4386 -30 c5 -24 -6 -35
-33 -35 -46 0 -72 30 -52 61 19 32 78 14 85 -26z m1524 15 c0 -17 -18 -30 -40
-30 -22 0 -40 13 -40 30 0 17 18 30 40 30 22 0 40 -13 40 -30z m1068 -2 c12
-32 -27 -46 -78 -28 -22 8 -59 7 -83 -1 -46 -18 -67 -7 -67 33 0 34 215 31
228 -4z m447 5 c-12 -34 -297 -42 -318 -9 -13 21 -16 21 -17 0 0 -33 -84 -24
-95 10 -5 17 52 23 215 23 160 0 220 -7 215 -24z m-2877 -25 c-29 -36 -138
-37 -138 -2 0 17 29 27 81 28 66 1 76 -3 57 -26z m582 1 c0 -31 -131 -45 -245
-27 -41 7 -75 4 -75 -6 0 -10 -10 -12 -21 -5 -12 7 -72 13 -132 12 -92 -1
-107 3 -88 26 33 40 561 40 561 0z m-746 -101 c17 -44 -37 -74 -71 -39 -15 15
-22 37 -14 49 20 33 70 27 85 -10z m721 -23 c7 -21 -107 -39 -180 -27 -8 1
-127 3 -265 3 -185 2 -250 8 -250 27 0 36 683 33 695 -3z m-721 -97 c17 -44
-37 -74 -71 -39 -15 15 -22 37 -14 49 20 33 70 27 85 -10z m386 -8 c0 -37 -13
-40 -180 -40 -149 0 -180 5 -180 31 0 26 23 30 135 23 75 -4 153 -1 175 8 22
8 42 16 45 17 3 0 5 -17 5 -39z m2318 10 c27 0 52 -11 57 -24 6 -18 -68 -23
-284 -22 -217 1 -291 8 -291 27 0 18 56 24 220 21 142 -3 220 3 220 17 1 14 6
14 15 1 8 -11 37 -20 63 -20z m611 -1 c17 -18 31 -22 31 -10 0 11 9 21 20 21
11 0 20 -13 20 -30 0 -17 -18 -30 -40 -30 -22 0 -40 11 -40 25 -1 18 -4 19
-15 2 -20 -32 -489 -30 -479 1 11 33 357 39 377 7 13 -19 16 -19 17 2 0 23 6
23 31 2 17 -14 30 -17 28 -7 -11 54 6 60 50 17z m-3316 -120 c7 -18 2 -42 -10
-54 -29 -29 -95 29 -74 63 20 32 70 27 84 -9z m3291 -35 c10 -16 16 -11 18 16
3 40 3 40 13 0 10 -40 10 -40 26 0 16 40 16 40 18 0 1 -30 6 -33 19 -13 9 15
43 26 74 26 32 -1 83 -2 113 -2 35 0 55 -11 55 -30 0 -36 -630 -40 -675 -5
-17 12 -25 11 -25 -4 0 -12 -13 -22 -30 -22 -16 0 -30 16 -30 35 0 44 396 43
424 -1z m551 28 c77 -5 17 -59 -65 -59 -71 0 -90 7 -90 34 0 32 9 34 155 25z
m125 -22 c0 -27 -13 -40 -40 -40 -27 0 -40 13 -40 40 0 27 13 40 40 40 27 0
40 -13 40 -40z m-1160 -10 c0 -20 -21 -28 -70 -26 -39 1 -70 13 -70 26 0 13
31 25 70 26 49 2 70 -6 70 -26z m-2804 -95 c5 -24 -6 -35 -35 -35 -28 0 -41
13 -41 41 0 52 66 46 76 -6z m117 -6 c0 -20 -14 -29 -40 -25 -59 9 -66 56 -8
56 30 0 48 -12 48 -31z m353 4 c-8 -12 -1 -12 16 -2 44 28 298 24 298 -4 0
-25 -606 -38 -644 -15 -41 26 13 38 171 39 103 0 166 -7 159 -18z m2214 7
c-21 -14 7 -19 95 -20 98 0 184 -33 110 -42 -188 -22 -305 -9 -305 35 0 40 10
47 65 47 49 -1 58 -5 35 -20z m3055 -45 c-19 -47 -269 -40 -281 8 -6 20 -2 37
8 37 10 0 18 -8 18 -18 0 -10 16 -15 35 -11 143 28 163 27 171 -7 6 -23 10
-18 12 15 1 36 8 43 25 26 12 -12 17 -35 12 -50z m625 5 c0 -30 -16 -37 -90
-37 -55 0 -90 9 -90 24 0 13 -9 10 -20 -7 -17 -27 -19 -27 -20 0 0 23 -5 24
-17 5 -17 -27 -123 -27 -123 0 0 21 29 30 136 43 65 8 82 5 71 -13 -9 -16 -3
-15 19 2 19 16 34 22 34 14 0 -7 16 -4 35 6 43 24 65 12 65 -37z m-3040 25 c0
-8 60 -15 133 -15 79 0 137 -9 141 -22 8 -23 -83 -26 -106 -3 -7 7 -28 7 -46
-2 -27 -12 -191 -15 -437 -5 -140 5 -56 40 97 40 90 0 168 5 174 11 16 16 44
13 44 -4z m668 -5 c65 1 126 6 135 12 9 6 17 -10 17 -36 -1 -33 -5 -39 -18
-19 -11 17 -22 20 -30 7 -13 -22 -263 -20 -285 2 -7 7 -22 7 -34 0 -42 -26
-153 -23 -153 5 0 30 76 44 180 34 39 -3 123 -6 188 -5z m625 -1 c57 -2 131 3
164 10 71 16 106 2 91 -37 -14 -36 -568 -35 -568 2 0 25 78 41 160 33 28 -3
96 -7 153 -8z m687 -25 c0 -14 -31 -25 -70 -26 -85 -3 -98 46 -15 56 66 9 85
2 85 -30z m680 -4 c0 -19 -15 -27 -44 -23 -64 10 -70 53 -8 53 33 0 52 -11 52
-30z m-5980 -69 c0 -54 -38 -72 -74 -35 -37 36 -19 74 35 74 25 0 39 -14 39
-39z m3571 -29 c34 6 49 0 49 -22 0 -27 -174 -48 -250 -30 -11 3 -85 4 -165 3
-89 -1 -145 6 -145 19 0 11 -14 7 -31 -11 -37 -36 -69 -41 -69 -10 0 12 -11
15 -25 6 -18 -11 -18 -6 1 18 23 27 68 32 285 30 142 -2 264 4 273 12 8 9 18
7 22 -4 3 -11 28 -16 55 -11z m664 9 c14 -1 25 -14 25 -31 0 -25 -43 -30 -270
-30 -244 0 -270 3 -270 35 0 33 156 41 515 26z m-1342 -35 c0 -23 -154 -42
-223 -26 -11 2 -40 5 -65 7 -132 9 -29 48 122 47 123 -1 166 -8 166 -28z
m1547 9 c1 -17 5 -18 15 -3 21 31 85 27 85 -5 0 -17 -23 -27 -60 -27 -35 0
-60 11 -60 25 -1 17 -7 15 -20 -5 -17 -25 -23 -25 -38 -3 -14 23 -19 23 -28 0
-8 -19 -11 -16 -12 8 -2 26 14 35 58 35 35 0 60 -11 60 -25z m-4558 -55 c10 0
18 -13 18 -30 0 -19 -19 -30 -50 -30 -38 0 -50 11 -50 42 0 30 9 39 32 30 17
-7 40 -12 50 -12z m393 -35 c6 -19 -37 -25 -173 -25 -100 0 -182 8 -182 19 0
42 341 48 355 6z m3767 -45 c1 -21 4 -22 11 -5 14 35 47 31 47 -5 0 -39 -219
-44 -222 -5 -1 20 -3 20 -11 0 -6 -14 -32 -25 -59 -25 -26 0 -48 11 -48 25 -1
17 -7 15 -20 -5 -15 -25 -26 -26 -59 -5 -33 20 -41 20 -41 0 -1 -17 -7 -15
-20 5 -14 22 -19 23 -20 4 0 -25 -131 -19 -157 7 -6 5 -30 -4 -55 -21 -41 -26
-49 -26 -77 2 -18 18 -31 21 -31 8 0 -14 -44 -21 -125 -19 -69 1 -196 1 -282
0 -166 -3 -184 1 -168 43 16 42 1334 38 1337 -4z m593 22 c105 -4 44 -57 -65
-57 -68 0 -110 9 -110 23 -1 16 -5 16 -15 -1 -23 -36 -95 -40 -136 -7 -21 17
-30 19 -22 5 11 -17 0 -25 -36 -25 -35 0 -51 11 -51 35 0 35 74 39 435 27z
m245 2 c-2 -62 -140 -90 -140 -29 0 30 15 39 70 41 39 2 70 -4 70 -12z m346
-4 c34 -14 36 -18 9 -19 -19 0 -35 -10 -35 -21 0 -13 -61 -19 -157 -17 -147 4
-155 6 -127 39 33 39 230 50 310 18z m-2566 -27 c0 -17 -26 -28 -70 -29 -49
-2 -70 6 -70 27 0 20 22 29 70 29 45 0 70 -10 70 -27z m-2667 -44 c7 -18 2
-42 -9 -53 -29 -29 -86 16 -71 55 15 39 65 37 80 -2z m453 -23 c-16 -40 -426
-34 -426 6 0 21 47 26 218 24 177 -2 216 -8 208 -30z m2089 -40 c77 -3 85 -5
85 -27 0 -12 -9 -16 -20 -9 -11 7 -20 3 -20 -7 0 -13 -22 -14 -60 -3 -35 10
-64 9 -71 -2 -7 -10 -22 -12 -35 -4 -13 8 -33 15 -44 15 -45 2 -26 41 20 43
28 1 57 8 64 15 7 8 18 6 25 -3 6 -9 31 -17 56 -18z m-3455 -23 c0 -20 -13
-36 -30 -36 -16 0 -30 16 -30 36 0 21 14 37 30 37 17 0 30 -16 30 -37z m913
-34 c7 -18 2 -42 -9 -53 -29 -29 -86 16 -71 55 15 39 65 37 80 -2z m403 -26
c5 -15 -56 -21 -185 -20 -149 2 -191 8 -191 30 0 35 364 25 376 -10z m2026
-45 c160 -3 196 -56 40 -60 -202 -5 -372 7 -379 26 -5 12 -15 9 -25 -7 -14
-22 -17 -22 -18 2 0 21 -9 18 -32 -10 -29 -36 -30 -36 -20 -2 7 20 12 43 12
51 0 9 65 13 145 9 80 -3 204 -7 277 -9z m318 -18 c1 -22 5 -24 16 -5 16 24
36 26 273 27 65 0 126 5 135 10 9 6 16 3 16 -7 0 -9 24 -16 53 -16 29 1 57
-10 62 -24 14 -41 -454 -39 -480 2 -11 17 -14 17 -15 -2 0 -16 -31 -25 -90
-25 -74 0 -90 6 -90 37 0 29 14 37 60 35 39 -1 60 -13 60 -32z m-2747 -31 c7
-18 2 -42 -9 -53 -29 -29 -86 16 -71 55 15 39 65 37 80 -2z m861 -41 c-7 -8
-714 -10 -809 -3 -14 1 -25 12 -25 24 0 17 113 22 401 20 271 -2 405 4 414 19
9 14 17 8 21 -15 4 -20 3 -40 -2 -45z m-1798 -171 c-20 -12 -20 -16 -1 -17 15
0 25 -27 25 -70 0 -49 -9 -70 -31 -70 -25 0 -29 28 -25 165 7 182 42 252 52
101 4 -60 -3 -98 -20 -109z m3184 101 c0 -24 -20 -32 -80 -32 -72 0 -102 25
-69 58 26 26 149 5 149 -26z m215 24 c42 -1 65 -12 65 -31 0 -30 -221 -36
-251 -7 -25 26 10 50 65 45 31 -3 85 -6 121 -7z m300 0 c111 -2 145 -9 145
-30 0 -23 -34 -27 -165 -23 -204 7 -195 5 -195 39 0 16 15 26 35 22 19 -4 100
-8 180 -8z m429 0 c184 -4 96 -56 -95 -57 -152 0 -167 3 -145 31 20 25 20 28
1 17 -14 -9 -25 -8 -25 2 0 9 38 15 85 13 47 -2 127 -5 179 -6z m-3191 -33 c7
-18 2 -42 -9 -53 -29 -29 -86 16 -71 55 15 39 65 37 80 -2z m596 -7 c98 -1
133 -8 118 -23 -14 -14 -134 -21 -329 -19 -383 4 -358 2 -358 31 0 17 58 22
215 18 118 -3 278 -6 354 -7z m1790 -111 c0 13 80 20 211 20 135 0 208 -7 204
-21 -11 -31 -97 -37 -116 -7 -11 17 -18 18 -18 4 0 -15 -64 -24 -195 -26 -107
-1 -260 -4 -340 -7 -126 -3 -145 0 -145 31 0 40 60 47 121 14 22 -11 39 -13
39 -5 0 9 40 17 89 18 49 1 85 -6 79 -15 -6 -9 -1 -17 11 -17 11 0 22 16 22
35 2 30 4 29 19 -5 9 -22 18 -31 19 -19z m1300 4 c2 35 71 31 101 -5 22 -26 8
-30 -103 -32 -226 -5 -367 5 -374 26 -5 14 -12 14 -20 0 -25 -40 -423 -38
-423 2 0 32 516 41 555 10 14 -12 25 -13 25 -3 0 10 29 18 65 16 36 -1 83 4
105 12 28 10 44 4 54 -18 7 -19 14 -22 15 -8z m417 -11 c-7 -39 -196 -36 -221
3 -10 17 -14 16 -15 -2 0 -14 -9 -25 -20 -25 -11 0 -20 14 -20 30 0 17 18 30
40 30 22 0 40 -11 40 -25 1 -17 5 -18 15 -3 18 26 85 29 85 3 0 -10 14 -4 32
14 36 36 73 22 64 -25z m-4214 16 c10 0 18 -13 18 -30 0 -19 -19 -30 -50 -30
-38 0 -50 11 -50 42 0 30 9 39 32 30 17 -7 40 -12 50 -12z m433 -28 c22 -23
-6 -28 -165 -32 -209 -5 -230 -4 -230 19 0 30 366 42 395 13z m2798 -83 c25
-24 26 -36 7 -60 -28 -33 -80 -39 -80 -9 0 29 -55 25 -67 -5 -5 -14 -11 -7
-12 15 -1 30 -6 33 -19 13 -13 -21 -19 -19 -29 8 -11 28 -3 32 49 24 40 -5 65
1 72 18 14 35 42 34 79 -4z m-3113 -41 c0 -17 -21 -28 -50 -28 -46 0 -67 36
-39 64 20 21 89 -8 89 -36z m1660 12 c0 -27 -13 -40 -40 -40 -39 0 -54 39 -27
67 28 27 67 12 67 -27z m523 -20 c10 0 14 8 8 19 -6 10 -3 24 9 31 11 7 20 3
20 -8 0 -11 14 -16 30 -9 19 7 30 0 30 -20 0 -26 -25 -31 -129 -31 -71 1 -139
-4 -150 -11 -12 -8 -21 5 -21 30 0 38 9 42 80 36 45 -5 81 1 82 12 2 12 7 5
12 -14 5 -19 18 -35 29 -35z m353 41 c85 0 197 2 249 5 64 3 98 -5 105 -23 15
-40 13 -43 -30 -43 -22 0 -40 11 -40 25 -1 19 -4 19 -16 1 -31 -48 -484 -33
-484 17 0 29 9 38 31 29 17 -6 101 -11 185 -11z m920 -8 c30 31 64 36 64 8 0
-11 12 -15 26 -10 42 16 734 20 734 5 0 -8 11 -11 25 -7 107 33 130 30 130
-14 0 -42 -7 -45 -107 -38 -64 4 -108 16 -108 30 -1 15 -7 14 -17 -3 -13 -20
-76 -27 -240 -26 -600 2 -563 -1 -565 37 -2 30 -4 30 -11 3 -12 -44 -187 -51
-187 -8 0 35 180 50 210 18 15 -17 27 -15 46 5z m-3216 -24 c0 -22 -28 -29
-110 -29 -124 0 -151 34 -35 44 41 3 91 8 110 10 19 2 35 -9 35 -25z m1280 0
c0 -19 -14 -29 -33 -25 -51 9 -57 56 -9 56 25 0 42 -13 42 -31z m-2424 -54 c5
-26 -6 -35 -45 -35 -48 0 -68 36 -37 67 24 24 75 4 82 -32z m1011 -44 c15 -39
-42 -84 -71 -55 -27 27 -6 84 31 84 16 0 34 -13 40 -29z m853 -25 c0 -28 -218
-39 -585 -30 -165 5 -235 13 -235 30 0 18 106 24 410 24 309 0 410 -6 410 -24z
m2220 12 c0 -7 23 -8 50 -3 35 7 50 1 50 -20 0 -33 -327 -37 -380 -5 -17 11
-21 8 -12 -7 8 -13 5 -23 -7 -23 -11 0 -21 11 -21 25 -1 17 -7 15 -20 -5 -17
-27 -19 -27 -20 0 0 19 -6 22 -15 9 -31 -45 -466 -20 -439 25 12 18 814 22
814 4z m274 -30 c4 -12 -19 -23 -53 -24 -42 -1 -61 8 -61 29 0 35 102 31 114
-5z m-4378 -197 c5 -121 0 -153 -20 -146 -25 8 -31 235 -6 275 6 9 1 21 -10
27 -12 5 -10 8 5 5 17 -4 27 -55 31 -161z m1031 120 c15 -39 -42 -84 -71 -55
-27 27 -6 84 31 84 16 0 34 -13 40 -29z m893 -25 c0 -28 -247 -40 -625 -30
-165 5 -235 13 -235 30 0 18 111 24 430 24 324 0 430 -6 430 -24z m1853 -20
c0 -14 -7 -26 -16 -26 -9 0 -17 11 -17 25 -1 18 -5 19 -15 2 -13 -20 -119 -37
-175 -28 -11 2 -73 5 -138 7 -245 8 -145 50 114 48 190 -1 247 -8 247 -28z
m381 7 c-2 -13 7 -21 21 -18 14 3 25 -2 25 -10 0 -12 -163 -12 -345 1 -117 8
-12 46 134 48 119 2 168 -5 165 -21z m-3241 -84 c7 -18 2 -42 -9 -53 -29 -29
-86 16 -71 55 15 39 65 37 80 -2z m475 -13 c-5 -7 16 -7 47 0 50 13 103 14
214 7 24 -2 32 -10 20 -22 -10 -10 -158 -20 -329 -21 -406 -4 -400 -4 -400 25
0 19 59 25 228 25 126 0 224 -6 220 -14z m1992 -13 c0 -10 23 -13 52 -7 32 6
59 -1 70 -18 12 -20 17 -21 18 -3 0 14 23 25 50 25 30 0 50 -11 50 -29 0 -23
-25 -28 -115 -23 -63 3 -135 -2 -159 -11 -49 -17 -76 8 -58 54 11 31 92 41 92
12z m299 -18 c1 34 41 52 41 19 0 -9 54 -12 120 -8 100 7 118 3 109 -21 -20
-54 -309 -41 -308 13 2 41 2 41 19 2 15 -34 17 -35 19 -5z m372 13 c10 -16 19
-14 31 5 10 15 18 17 18 5 0 -13 21 -19 47 -14 33 7 46 0 46 -23 0 -24 -17
-31 -66 -27 -37 2 -67 10 -67 18 0 8 -15 19 -32 26 -23 9 -29 4 -21 -18 7 -16
3 -30 -8 -30 -10 0 -19 18 -19 40 0 43 49 55 71 18z m356 7 c5 14 11 7 11 -14
2 -30 7 -34 26 -15 36 36 336 33 336 -4 0 -15 -18 -32 -40 -38 -22 -6 -40 -3
-40 6 0 9 -31 9 -70 0 -38 -9 -70 -10 -70 -3 0 7 -54 12 -120 11 -77 -2 -120
5 -120 20 -1 15 -5 15 -16 -2 -17 -27 -69 -25 -84 4 -13 26 101 47 143 27 22
-11 37 -8 44 8z m473 -26 c0 -46 -13 -49 -51 -10 -38 37 -37 42 11 46 27 2 40
-10 40 -36z m97 -5 c17 26 183 48 183 25 0 -10 14 -13 30 -6 19 7 30 -1 30
-21 0 -45 -79 -42 -82 3 -2 31 -4 31 -11 2 -7 -25 -32 -34 -98 -34 -92 0 -122
20 -96 62 12 18 18 14 24 -13 4 -21 13 -29 20 -18z m323 11 c0 -22 6 -27 15
-13 27 40 185 49 186 11 2 -26 5 -25 17 6 10 26 20 31 30 15 27 -44 -6 -59
-135 -62 -113 -2 -129 2 -139 38 -6 22 -2 40 8 40 10 0 18 -16 18 -35z m-4387
-76 c18 -48 -24 -81 -62 -49 -24 19 -26 32 -9 53 30 36 56 34 71 -4z m601 -7
c14 -1 20 -13 15 -27 -9 -23 -131 -26 -544 -16 -25 0 -45 12 -45 26 0 21 391
33 574 17z m2055 -57 c8 -19 -45 -24 -230 -21 -154 2 -239 11 -239 25 0 32
457 29 469 -4z m531 13 c0 -8 28 -4 63 9 49 18 65 17 71 -1 5 -13 22 -19 37
-13 16 6 29 1 29 -11 0 -12 -18 -22 -40 -22 -22 0 -40 11 -40 25 -1 18 -4 19
-15 2 -10 -16 -91 -23 -250 -21 -211 1 -254 8 -226 36 15 14 371 11 371 -4z
m-3187 -69 c18 -48 -24 -81 -62 -49 -24 19 -26 32 -9 53 30 36 56 34 71 -4z
m661 -17 c26 -25 -13 -30 -265 -32 -366 -3 -369 -3 -369 25 0 26 609 33 634 7z
m978 -52 c48 0 88 -9 88 -20 0 -30 -121 -23 -190 11 -33 16 -44 25 -23 19 20
-5 76 -10 125 -10z m-2413 -83 c-33 -61 -66 -15 -41 57 1 3 15 0 32 -7 22 -8
24 -20 9 -50z m721 13 c0 -33 -55 -55 -71 -28 -7 11 -8 33 -2 49 13 33 73 17
73 -21z m956 5 c5 -24 -6 -35 -35 -35 -28 0 -41 13 -41 41 0 52 66 46 76 -6z
m477 14 c18 -48 -24 -81 -62 -49 -24 19 -26 32 -9 53 30 36 56 34 71 -4z m467
-9 c0 -8 -13 -26 -28 -39 -34 -27 -62 4 -45 50 11 28 73 19 73 -11z m613 9
c17 -44 -25 -85 -56 -54 -25 25 -9 85 23 85 12 0 27 -14 33 -31z m-3111 -19
c0 -11 -19 -23 -41 -26 -40 -7 -54 16 -27 43 19 20 68 7 68 -17z m198 0 c0
-17 -18 -30 -40 -30 -22 0 -40 13 -40 30 0 17 18 30 40 30 22 0 40 -13 40 -30z
m159 5 c22 -20 24 -20 11 3 -11 19 -9 23 7 14 48 -30 20 -52 -67 -52 -67 0
-90 8 -90 30 0 37 100 41 139 5z m496 -4 c18 -18 -1 -27 -65 -31 -116 -8 -170
0 -170 26 0 25 210 30 235 5z m450 10 c118 -3 48 -41 -75 -41 -91 0 -130 8
-130 25 0 16 26 24 75 21 41 -2 100 -4 130 -5z m528 -11 c-10 -32 -253 -38
-253 -6 0 19 37 26 130 26 78 0 127 -8 123 -20z m422 11 c25 0 45 -10 45 -21
0 -10 -54 -18 -120 -17 -81 1 -120 9 -120 26 0 16 26 23 75 19 41 -3 95 -6
120 -7z m660 -10 c23 -22 -8 -28 -155 -31 -221 -4 -240 -2 -240 25 0 25 370
31 395 6z m410 -1 c9 -13 14 -12 15 3 0 13 17 19 40 13 85 -22 34 -46 -100
-46 -103 0 -140 7 -140 27 0 32 162 34 185 3z m4475 -114 c0 -10 -9 -13 -20
-6 -11 7 -20 4 -20 -6 0 -10 -22 -14 -50 -9 -73 14 -61 36 20 38 39 1 70 -6
70 -17z m394 -9 c-9 -9 -151 -14 -184 -7 -11 2 2 10 30 18 49 13 170 5 154
-11z"/>
<path d="M5515 27526 c35 -5 98 -5 140 -1 41 5 12 8 -65 8 -77 1 -111 -3 -75
-7z"/>
<path d="M2734 26525 c-5 -8 -7 -35 -5 -60 3 -29 -7 -45 -26 -45 -24 0 -23 -6
6 -27 21 -15 31 -37 23 -50 -8 -13 -4 -23 8 -23 14 0 20 40 18 110 -5 110 -8
123 -24 95z"/>
<path d="M2285 26290 c-12 -38 -14 -75 -5 -80 10 -6 9 -38 0 -71 -11 -36 -10
-55 1 -48 11 6 19 2 19 -9 0 -11 -7 -24 -15 -29 -14 -9 -15 -310 -1 -375 3
-16 -7 -25 -24 -22 -24 6 -25 2 -5 -19 30 -30 34 -249 5 -267 -11 -7 -20 -23
-20 -36 0 -15 9 -12 21 6 14 21 18 -25 12 -155 -5 -102 -1 -190 9 -197 10 -6
13 -20 5 -32 -24 -39 -18 -219 8 -240 20 -17 25 148 25 812 0 457 -3 832 -7
832 -3 0 -16 -31 -28 -70z"/>
<path d="M7277 26457 c-26 -7 25 -13 113 -13 162 1 169 9 17 20 -45 4 -103 1
-130 -7z"/>
<path d="M6584 26289 c6 -6 451 -12 988 -15 770 -3 977 -9 973 -29 -3 -14 4
-25 15 -25 11 0 20 18 20 40 0 39 -13 40 -1003 40 -552 0 -999 -5 -993 -11z"/>
<path d="M8241 27949 c15 -18 39 -25 57 -17 18 7 50 13 72 12 32 -2 34 1 10
17 -54 34 -169 24 -139 -12z"/>
<path d="M5657 27878 c-14 -8 -32 -11 -41 -5 -9 5 -16 0 -16 -12 0 -30 135
-26 147 4 8 20 10 20 11 0 2 -29 82 -34 82 -5 0 11 16 20 35 20 30 -1 31 -3 5
-20 -21 -14 9 -19 102 -20 104 0 131 6 131 30 0 37 -40 39 -94 5 -28 -18 -45
-19 -55 -3 -16 24 -270 29 -307 6z"/>
<path d="M6240 27885 c0 -12 -25 -26 -55 -31 -30 -4 74 -9 231 -11 190 -2 282
4 274 17 -7 12 -21 16 -30 10 -9 -6 -23 -2 -30 10 -7 11 -44 20 -82 20 -42 0
-65 -8 -58 -20 18 -29 -197 -25 -226 4 -17 17 -24 17 -24 1z"/>
<path d="M5910 27699 l-100 -13 125 -3 c69 -2 125 1 125 5 0 18 -56 22 -150
11z"/>
<path d="M127 25600 c0 -82 3 -116 8 -75 4 41 4 109 0 150 -5 41 -8 8 -8 -75z"/>
<path d="M127 25010 c0 -88 3 -122 8 -74 4 47 4 119 0 160 -5 40 -8 2 -8 -86z"/>
<path d="M4980 22594 c-71 -36 -84 -154 -16 -154 58 1 84 18 115 77 46 88 -2
126 -99 77z"/>
<path d="M6640 22570 c-56 -60 -18 -131 53 -100 35 15 35 17 2 25 -20 4 -30
16 -24 27 7 10 21 13 33 6 11 -7 28 -1 38 14 54 86 -28 107 -102 28z"/>
<path d="M185 22586 c-104 -13 -99 -146 5 -146 68 0 70 2 70 80 0 44 -2 79 -5
77 -3 -2 -34 -7 -70 -11z"/>
<path d="M2559 22597 c-24 -129 -21 -137 52 -137 66 0 71 4 65 55 -4 34 -17
53 -33 49 -15 -3 -40 5 -55 18 -15 12 -29 20 -29 15z"/>
<path d="M2824 22576 c-33 -33 -30 -86 6 -116 58 -48 28 -55 -195 -47 -565 19
-709 19 -761 1 -30 -10 -104 -12 -164 -5 l-109 14 32 48 c17 27 26 62 20 79
-14 35 -124 41 -145 7 -8 -14 -5 -18 7 -10 31 19 85 -6 85 -40 0 -29 -103 -17
-116 14 -8 21 -84 -1 -84 -25 0 -10 -9 -13 -20 -6 -11 7 -20 4 -20 -7 0 -11
11 -24 25 -30 14 -6 -213 -11 -505 -10 -363 1 -549 -7 -590 -23 -57 -22 -146
-18 -245 11 -34 10 -45 5 -45 -18 0 -30 379 -33 4500 -33 l4500 0 0 100 c0
118 -9 124 -49 30 -41 -98 -103 -118 -311 -98 -160 14 -582 27 -1165 35 -189
2 -255 9 -255 28 0 17 -33 25 -100 25 -131 0 -144 -54 -15 -65 83 -8 82 -8
-18 -12 -94 -3 -102 1 -93 37 13 47 -67 58 -113 15 -21 -20 -24 -20 -13 0 10
17 -2 25 -37 25 -101 0 -60 -60 44 -63 75 -2 63 -6 -55 -17 -102 -9 -182 -5
-250 13 -160 42 -1312 38 -1469 -6 -112 -31 -125 -31 -210 1 -49 19 -106 30
-126 24 -19 -6 -48 -3 -63 7 -17 10 -49 9 -80 -4 -29 -13 -182 -24 -342 -27
-159 -2 -351 -7 -425 -11 -74 -4 -135 0 -135 8 0 8 -22 15 -50 15 -27 0 -50
-9 -50 -21 0 -14 -12 -15 -33 -3 -18 10 -64 12 -102 3 -39 -9 -134 -9 -213 0
-78 8 -146 10 -152 3 -5 -7 -57 -12 -115 -13 -108 -1 -133 23 -75 71 38 32 38
49 -1 89 -38 37 -72 40 -105 7z m-1244 -156 c0 -11 -31 -20 -70 -20 -38 0 -70
9 -70 20 0 11 32 20 70 20 39 0 70 -9 70 -20z"/>
<path d="M3140 22570 c-13 -15 -35 -23 -50 -17 -19 7 -24 -2 -16 -31 6 -23 18
-37 26 -32 9 5 26 -3 39 -19 35 -42 81 -15 81 49 0 63 -46 92 -80 50z"/>
<path d="M3364 22576 c-60 -60 1 -156 75 -117 64 34 42 141 -29 141 -12 0 -33
-11 -46 -24z"/>
<path d="M4460 22583 c0 -9 -18 -38 -40 -63 -54 -63 -50 -84 15 -76 40 4 53
16 49 41 -3 21 7 35 25 35 18 0 31 17 31 40 0 27 -13 40 -40 40 -22 0 -40 -8
-40 -17z"/>
<path d="M6791 22581 c-6 -10 -3 -23 7 -30 10 -6 24 0 30 14 10 20 14 20 24 0
16 -34 41 -31 41 5 0 33 -83 42 -102 11z"/>
<path d="M7780 22573 c0 -17 26 -28 70 -29 69 -3 92 20 47 48 -16 9 -18 5 -7
-14 13 -23 11 -23 -11 -3 -36 33 -99 32 -99 -2z"/>
<path d="M8786 22571 c11 -33 94 -38 94 -6 0 16 -21 27 -50 27 -28 0 -48 -9
-44 -21z"/>
<path d="M428 22553 c-16 -42 6 -73 53 -73 30 0 35 8 21 44 -20 55 -58 69 -74
29z"/>
<path d="M2020 22552 c0 -55 25 -92 61 -92 47 0 65 30 49 80 -15 47 -110 57
-110 12z"/>
<path d="M2305 22558 c-56 -21 -57 -50 -4 -78 80 -43 145 9 99 80 -17 27 -19
27 -20 0 0 -20 -6 -22 -15 -8 -10 15 -31 17 -60 6z"/>
<path d="M3620 22520 c0 -53 7 -60 60 -60 61 0 73 23 48 88 -24 62 -108 39
-108 -28z"/>
<path d="M4229 22559 c-7 -13 -30 -18 -51 -13 -53 14 -64 -14 -21 -53 34 -31
39 -30 81 15 26 28 37 53 25 60 -11 7 -26 3 -34 -9z"/>
<path d="M4712 22548 c-16 -43 -17 -42 28 -54 46 -12 52 16 12 57 -24 24 -30
24 -40 -3z"/>
<path d="M8307 22548 c-16 -40 19 -74 66 -65 52 10 46 59 -9 79 -34 13 -49 9
-57 -14z"/>
<path d="M586 22528 c2 -36 15 -41 97 -41 63 0 91 7 82 21 -7 12 3 10 21 -5
29 -24 34 -24 34 1 0 46 -13 50 -119 36 -64 -8 -103 -5 -109 9 -4 11 -7 2 -6
-21z"/>
<path d="M1744 22505 c6 -59 94 -82 111 -30 5 15 -9 25 -33 25 -24 0 -42 13
-42 30 0 17 -10 30 -21 30 -12 0 -19 -25 -15 -55z"/>
<path d="M3860 22536 c1 -83 124 -105 136 -25 5 34 -6 42 -65 45 -47 4 -71 -3
-71 -20z"/>
<path d="M8020 22542 c0 -36 52 -62 76 -38 37 37 28 56 -26 56 -27 0 -50 -8
-50 -18z"/>
<path d="M8169 22538 c-18 -28 34 -63 58 -39 19 19 1 61 -27 61 -10 0 -24 -10
-31 -22z"/>
<path d="M8510 22503 c-44 -44 2 -59 180 -61 171 -2 190 1 190 34 0 36 -20 39
-176 26 -16 -1 -20 -12 -11 -27 10 -17 4 -17 -19 2 -18 15 -47 22 -64 16 -16
-7 -30 -5 -30 4 0 18 -54 22 -70 6z"/>
<path d="M7800 22470 c0 -18 19 -30 47 -30 28 0 46 12 46 30 0 18 -18 30 -46
30 -28 0 -47 -12 -47 -30z"/>
</g>
</svg>
